<svg width="32" height="32" viewBox="0 0 32 32" fill="none" xmlns="http://www.w3.org/2000/svg">
<path d="M31.2877 15.9833C31.2877 24.4823 24.416 31.3694 15.9425 31.3694C7.46896 31.3694 0.597222 24.4823 0.597222 15.9833C0.597222 7.48438 7.46896 0.597222 15.9425 0.597222C24.416 0.597222 31.2877 7.48438 31.2877 15.9833Z" fill="white" stroke="#35838D" stroke-width="1.19444"/>
<g clip-path="url(#clip0)">
<path d="M21.3659 17.2044L21.9071 13.669H18.5234V11.3747C18.5234 10.4075 18.9961 9.46469 20.5115 9.46469H22.0498V6.45467C22.0498 6.45467 20.6538 6.21582 19.3192 6.21582C16.5326 6.21582 14.7112 7.90912 14.7112 10.9745V13.669H11.6138V17.2044H14.7112V25.751H18.5234V17.2044H21.3659Z" fill="#35838D"/>
</g>
<defs>
<clipPath id="clip0">
<rect width="12.1783" height="19.5352" fill="white" transform="translate(10.7427 6.21594)"/>
</clipPath>
</defs>
</svg>
