<?xml version="1.0" encoding="UTF-8" standalone="no"?>
<svg
   xmlns:dc="http://purl.org/dc/elements/1.1/"
   xmlns:cc="http://creativecommons.org/ns#"
   xmlns:rdf="http://www.w3.org/1999/02/22-rdf-syntax-ns#"
   xmlns:svg="http://www.w3.org/2000/svg"
   xmlns="http://www.w3.org/2000/svg"
   xmlns:sodipodi="http://sodipodi.sourceforge.net/DTD/sodipodi-0.dtd"
   xmlns:inkscape="http://www.inkscape.org/namespaces/inkscape"
   width="28"
   height="20"
   viewBox="0 0 28 20"
   version="1.1"
   id="svg4"
   sodipodi:docname="footer_email.svg"
   style="fill:none"
   inkscape:version="0.92.4 (5da689c313, 2019-01-14)">
  <metadata
     id="metadata10">
    <rdf:RDF>
      <cc:Work
         rdf:about="">
        <dc:format>image/svg+xml</dc:format>
        <dc:type
           rdf:resource="http://purl.org/dc/dcmitype/StillImage" />
        <dc:title></dc:title>
      </cc:Work>
    </rdf:RDF>
  </metadata>
  <defs
     id="defs8" />
  <sodipodi:namedview
     pagecolor="#ffffff"
     bordercolor="#666666"
     borderopacity="1"
     objecttolerance="10"
     gridtolerance="10"
     guidetolerance="10"
     inkscape:pageopacity="0"
     inkscape:pageshadow="2"
     inkscape:window-width="1920"
     inkscape:window-height="1017"
     id="namedview6"
     showgrid="false"
     fit-margin-top="0"
     fit-margin-left="0"
     fit-margin-right="0"
     fit-margin-bottom="0"
     inkscape:zoom="20.85965"
     inkscape:cx="8.2710675"
     inkscape:cy="9.859019"
     inkscape:window-x="1912"
     inkscape:window-y="-8"
     inkscape:window-maximized="1"
     inkscape:current-layer="svg4" />
  <path
     d="M 26,0 H 2 C 1.46957,0 0.96086,0.21071 0.58579,0.58579 0.21071,0.96086 0,1.46957 0,2 v 16 c 0,0.5304 0.21071,1.0391 0.58579,1.4142 C 0.96086,19.7893 1.46957,20 2,20 h 24 c 0.5304,0 1.0391,-0.2107 1.4142,-0.5858 C 27.7893,19.0391 28,18.5304 28,18 V 2 C 28,1.46957 27.7893,0.96086 27.4142,0.58579 27.0391,0.21071 26.5304,0 26,0 Z M 23.8,2 14,8.78 4.2,2 Z M 2,18 V 2.91 l 11.43,7.91 c 0.1674,0.1161 0.3663,0.1784 0.57,0.1784 0.2037,0 0.4026,-0.0623 0.57,-0.1784 L 26,2.91 V 18 Z"
     id="path2"
     inkscape:connector-curvature="0"
     style="fill:#35838d" />
</svg>
