<svg width="25" height="29" viewBox="0 0 25 29" fill="none" xmlns="http://www.w3.org/2000/svg">
<path d="M0 14.5C0 17.1648 1.97941 19.3333 4.41176 19.3333C5.57941 19.3333 6.63529 18.8258 7.425 18.0122L16.2353 23.5287C16.2088 23.7381 16.1765 23.9476 16.1765 24.1667C16.1765 26.8314 18.1559 29 20.5882 29C23.0206 29 25 26.8314 25 24.1667C25 21.5019 23.0206 19.3333 20.5882 19.3333C19.4206 19.3333 18.3647 19.8408 17.575 20.6544L8.76471 15.1396C8.79118 14.9286 8.82353 14.7191 8.82353 14.5C8.82353 14.2809 8.79118 14.0714 8.76471 13.8604L17.575 8.34556C18.3647 9.15917 19.4206 9.66667 20.5882 9.66667C23.0206 9.66667 25 7.49811 25 4.83333C25 2.16856 23.0206 0 20.5882 0C18.1559 0 16.1765 2.16856 16.1765 4.83333C16.1765 5.05244 16.2088 5.26189 16.2353 5.47294L7.425 10.9878C6.61177 10.1414 5.53343 9.66865 4.41176 9.66667C1.97941 9.66667 0 11.8352 0 14.5Z" fill="#35838D"/>
</svg>
