<svg xmlns="http://www.w3.org/2000/svg" xmlns:xlink="http://www.w3.org/1999/xlink" viewBox="0 0 209.76 151.16" width="209.76px" height="151.16px" ><defs><style>.cls-1{fill:none;}.cls-2{fill:#3c3f41;}.cls-3{clip-path:url(#clip-path);}.cls-4{fill:#a7a9ac;}.cls-5{clip-path:url(#clip-path-2);}.cls-6{clip-path:url(#clip-path-3);}.cls-7{fill:url(#linear-gradient);}.cls-8{clip-path:url(#clip-path-4);}.cls-9{clip-path:url(#clip-path-5);}.cls-10{fill:url(#linear-gradient-2);}.cls-11{clip-path:url(#clip-path-6);}.cls-12{clip-path:url(#clip-path-7);}.cls-13{fill:url(#linear-gradient-3);}.cls-14{clip-path:url(#clip-path-8);}.cls-15{fill:#fff;}.cls-16{fill:#c2c4c6;}.cls-17{clip-path:url(#clip-path-9);}.cls-18{fill:url(#linear-gradient-4);}.cls-19{clip-path:url(#clip-path-10);}.cls-20{fill:url(#linear-gradient-5);}.cls-21{clip-path:url(#clip-path-11);}.cls-22{fill:url(#linear-gradient-6);}.cls-23{clip-path:url(#clip-path-12);}.cls-24{fill:url(#linear-gradient-7);}</style><clipPath id="clip-path"><rect class="cls-1" width="209.76" height="151.16"/></clipPath><clipPath id="clip-path-2"><path class="cls-1" d="M70.31,45.81h0l.13-.2V21.2H97.78a3.3,3.3,0,0,0,1.32-2.14,5.27,5.27,0,0,0,0-1.19C98.35,14,95.33,12.34,95,9.19a7.7,7.7,0,0,1,2.63-6.54A10.34,10.34,0,0,1,104.51,0h0c5.27,0,10.17,4.18,9.53,9.23a7,7,0,0,1-1.32,2.88h0l-.08.09a13,13,0,0,0-2.62,5.59,5.07,5.07,0,0,0,.14,1.44,3.17,3.17,0,0,0,1.54,2H139v9.09c-1,0-1.92,0-2.88,0-25.36,0-48.43,4.53-65.64,12v3.4l-.14.19m69,.39,0-.05,0,.05m18.5.18a8.92,8.92,0,0,0-2.6-2.23l.52.31a9.23,9.23,0,0,1,2.08,1.92m.13.17a1.83,1.83,0,0,1-.13-.16,1.83,1.83,0,0,0,.13.16m.11.15,0-.05,0,.05m.11.16,0,0,0,0M68.48,58.2h0m74.42.21a7,7,0,0,0-.69-.16l-.33,0,.34,0c.23,0,.46.1.68.16m.1,0-.08,0,.08,0m.14,0,0,0,0,0m1.64.68-.11-.06a10.8,10.8,0,0,0-1.42-.59,9.64,9.64,0,0,1,1.53.65m-90.34,2.4a9.88,9.88,0,0,1-5.15-8.8,10.19,10.19,0,0,1,.31-2.47c1-3.89,4.19-7,8-7a6.65,6.65,0,0,1,.89.06,7.21,7.21,0,0,1,2.9,1.31v0l.08.08c.52.34,1.06.72,1.63,1.07a63.88,63.88,0,0,0-13.52,9.43,9.68,9.68,0,0,0,4.85,6.39m95.36.55a7.28,7.28,0,0,1-.77-.31l-.14-.07-.08,0a7.17,7.17,0,0,0,1,.42m1.89.29a7.13,7.13,0,0,1-.79,0,7.13,7.13,0,0,0,.79,0h0m-43.16,2.28a10.59,10.59,0,0,0-4-.82h0a10.58,10.58,0,0,1,4,.82m.08,0-.06,0,.06,0M112.75,76h0a6.2,6.2,0,0,0,.66-6.88,7.19,7.19,0,0,1,.67,4A7.07,7.07,0,0,1,112.75,76M99.12,82.13c0-.13,0-.25,0-.38-.74-3.9-3.76-5.55-4.1-8.7,0-.23,0-.47,0-.7,0,.23,0,.47,0,.7.34,3.15,3.36,4.8,4.1,8.7,0,.12,0,.25,0,.38m11,.78a5.3,5.3,0,0,1-.09-1.24,13.07,13.07,0,0,1,2.62-5.6l.08-.08h0l-.08.08a12.89,12.89,0,0,0-2.62,5.6,5.24,5.24,0,0,0,.08,1.24M70.45,85h0V59.45a3.15,3.15,0,0,0-.35-.38,3.24,3.24,0,0,1,.36.38V85"/></clipPath><clipPath id="clip-path-3"><path class="cls-1" d="M95,9.19c.34,3.15,3.36,4.79,4.1,8.68a5.27,5.27,0,0,1,0,1.19,3.3,3.3,0,0,1-1.32,2.14H70.44V45.61a3.26,3.26,0,0,1-1.9,1.48,5.57,5.57,0,0,1-1.45.12A13.13,13.13,0,0,1,61.5,44.6l-.08-.09v0a7,7,0,0,0-2.9-1.31c-5.05-.64-9.22,4.26-9.23,9.53s4.13,10.09,9.19,9.54c3.15-.34,4.8-3.37,8.7-4.11a5.17,5.17,0,0,1,1.18,0,3.2,3.2,0,0,1,2.08,1.26V85H97.85a3.25,3.25,0,0,0,1.25-2.08,5.16,5.16,0,0,0,0-1.18c-.74-3.9-3.76-5.55-4.1-8.7-.55-5,4.27-9.19,9.54-9.19s10.17,4.18,9.53,9.23a7.1,7.1,0,0,1-1.32,2.9h0l-.08.08a13.07,13.07,0,0,0-2.62,5.6,5.17,5.17,0,0,0,.14,1.44,3.13,3.13,0,0,0,1.45,1.9h27.55V59.19a3.12,3.12,0,0,1,1.82-1,5.17,5.17,0,0,1,1.18,0c3.9.74,5.54,3.75,8.69,4.1,5,.55,9.21-4.27,9.19-9.55s-4.17-10.16-9.22-9.53a7.1,7.1,0,0,0-2.9,1.32v0l-.08.07a13,13,0,0,1-5.6,2.62,5.09,5.09,0,0,1-1.44-.13A3,3,0,0,1,139.21,46V21.2H111.75a3.17,3.17,0,0,1-1.54-2,5.07,5.07,0,0,1-.14-1.44,13,13,0,0,1,2.62-5.59l.08-.09h0a7,7,0,0,0,1.32-2.88C114.7,4.18,109.8,0,104.53,0h0C99.24,0,94.44,4.14,95,9.19"/></clipPath><linearGradient id="linear-gradient" x1="-86.72" y1="716.95" x2="-85.72" y2="716.95" gradientTransform="matrix(110.8, 0, 0, -110.8, 9657.72, 79480.23)" gradientUnits="userSpaceOnUse"><stop offset="0" stop-color="#26c3ed"/><stop offset="0.5" stop-color="#00b2ec"/><stop offset="1" stop-color="#0086bc"/></linearGradient><clipPath id="clip-path-4"><path class="cls-1" d="M54.73,61.78h0m.21.1-.12-.06.12.06m2.74.54A7.27,7.27,0,0,1,55,61.89a7.17,7.17,0,0,0,2.7.52,7,7,0,0,0,.79,0c3.15-.34,4.8-3.37,8.7-4.09a3.67,3.67,0,0,1,.66-.05,4.53,4.53,0,0,1,.52,0,3.15,3.15,0,0,1,1.93,1.07,3.17,3.17,0,0,0-1.92-1.06,4.89,4.89,0,0,0-.54,0,4.58,4.58,0,0,0-.64,0c-3.91.73-5.56,3.75-8.7,4.1a6.85,6.85,0,0,1-.79,0M44.8,69.86l0,0,0,0m.08.25,0-.11,0,.11m.07.23,0-.16,0,.16m.06.24c0-.06,0-.12,0-.19s0,.13,0,.19m.05.21c0-.07,0-.14,0-.21s0,.14,0,.21m0,.23c0-.07,0-.14,0-.21s0,.14,0,.21m-1.27,5a7,7,0,0,0,1.31-2.9,7.15,7.15,0,0,0,0-2.07,7.22,7.22,0,0,1,0,2.08A6.91,6.91,0,0,1,43.84,76m-1.49,8.72a2.92,2.92,0,0,1-1.06-1.6,5.13,5.13,0,0,1-.12-1.44,12.84,12.84,0,0,1,2.62-5.6l.08-.08-.08.08a13.12,13.12,0,0,0-2.62,5.6v.43a5.08,5.08,0,0,0,.13,1h0c.08.21.15.41.24.62a3.25,3.25,0,0,0,.81,1M28.94,85H1.54V59.54a3.21,3.21,0,0,1,2.1-1.28,4.41,4.41,0,0,1,.52,0,3.67,3.67,0,0,1,.66.05c3.9.72,5.55,3.75,8.7,4.09a7.09,7.09,0,0,0,.79,0,7.3,7.3,0,0,0,3.71-1,10,10,0,0,0,4.69-8.56c0-5-3.7-9.59-8.34-9.59a6.77,6.77,0,0,0-.89.06,7.27,7.27,0,0,0-2.9,1.31v0l-.08.08a13.32,13.32,0,0,1-5.59,2.62H4.68a5.6,5.6,0,0,1-1.21-.13,3.21,3.21,0,0,1-1.93-1.49V21.2H28.86a3.29,3.29,0,0,0,1.34-2.14,6.78,6.78,0,0,0,0-1.19c-.74-3.89-3.76-5.53-4.1-8.68a7.7,7.7,0,0,1,2.63-6.54A10.34,10.34,0,0,1,35.6,0h0c5.27,0,10.16,4.18,9.53,9.23a6.88,6.88,0,0,1-1.31,2.88h0l-.08.09a12.8,12.8,0,0,0-2.62,5.59,5,5,0,0,0,.12,1.44,3.19,3.19,0,0,0,1.55,2H70.3V42.29q-3.8,1.64-7.19,3.45c-.57-.35-1.11-.73-1.63-1.07l-.08-.08v0a7.21,7.21,0,0,0-2.9-1.31,6.65,6.65,0,0,0-.89-.06c-3.82,0-7,3.16-8,7a10.28,10.28,0,0,0-.32,2.54,9.93,9.93,0,0,0,.27,2.38,33.65,33.65,0,0,0-7.89,10.61,10.49,10.49,0,0,0-6-2h0a10.29,10.29,0,0,0-6.91,2.67,7.67,7.67,0,0,0-2.62,6.52c.34,3.15,3.36,4.8,4.1,8.7a6.61,6.61,0,0,1,0,1.18A3.31,3.31,0,0,1,28.94,85"/></clipPath><clipPath id="clip-path-5"><path class="cls-1" d="M26.08,9.19c.34,3.15,3.36,4.79,4.1,8.68a6.78,6.78,0,0,1,0,1.19,3.29,3.29,0,0,1-1.34,2.14H1.54V45.67a3.21,3.21,0,0,0,1.93,1.49,5.94,5.94,0,0,0,1.44.13,13.32,13.32,0,0,0,5.59-2.62l.08-.08v0a7.27,7.27,0,0,1,2.9-1.31c5.05-.64,9.22,4.26,9.23,9.53s-4.14,10.1-9.19,9.54C10.37,62,8.72,59,4.82,58.28a4.23,4.23,0,0,0-1.18,0,3.21,3.21,0,0,0-2.1,1.28V85h27.4a3.31,3.31,0,0,0,1.26-2.08,6.61,6.61,0,0,0,0-1.18c-.74-3.9-3.76-5.55-4.1-8.7-.56-5,4.27-9.19,9.54-9.19S45.78,68,45.15,73.09A7,7,0,0,1,43.84,76h0l-.08.08a12.84,12.84,0,0,0-2.62,5.6,5.13,5.13,0,0,0,.12,1.44A3.22,3.22,0,0,0,42.75,85H70.3V59.36a3.16,3.16,0,0,0-2-1.1,4.23,4.23,0,0,0-1.18,0c-3.9.72-5.55,3.75-8.7,4.09-5.05.56-9.19-4.27-9.18-9.54s4.18-10.17,9.22-9.53a7.21,7.21,0,0,1,2.9,1.31v0l.08.08a13.32,13.32,0,0,0,5.59,2.62,6.07,6.07,0,0,0,1.45-.13,3.1,3.1,0,0,0,1.78-1.3V21.2H42.84a3.19,3.19,0,0,1-1.55-2,5,5,0,0,1-.12-1.44,12.8,12.8,0,0,1,2.62-5.59l.08-.09h0a6.88,6.88,0,0,0,1.31-2.88C45.78,4.18,40.89,0,35.62,0h0c-5.26,0-10.08,4.14-9.52,9.19"/></clipPath><linearGradient id="linear-gradient-2" x1="-86.72" y1="716.95" x2="-85.72" y2="716.95" gradientTransform="matrix(68.76, 0, 0, -68.76, 5964.37, 49340.22)" gradientUnits="userSpaceOnUse"><stop offset="0" stop-color="#b1d349"/><stop offset="0.5" stop-color="#85c552"/><stop offset="1" stop-color="#6faf4b"/></linearGradient><clipPath id="clip-path-6"><path class="cls-1" d="M198.83,44.61a7.21,7.21,0,0,0-2.9-1.31l-.41,0,.42,0a7.17,7.17,0,0,1,2.89,1.31m8.9.43C190.67,36.28,166.25,30.66,139,30.29V21.2H166.3a3.26,3.26,0,0,0,1.32-2.14,5.27,5.27,0,0,0,0-1.19c-.74-3.89-3.76-5.53-4.1-8.68a7.68,7.68,0,0,1,2.63-6.53A10.3,10.3,0,0,1,173,0h0c5.27,0,10.16,4.18,9.53,9.23a6.88,6.88,0,0,1-1.31,2.88h0l-.08.09a12.8,12.8,0,0,0-2.62,5.59,5.43,5.43,0,0,0,.12,1.44,3.22,3.22,0,0,0,1.55,2h27.46V45m-8.07.13-.75-.5-.08-.08.09.08.74.5m-41.59,1.47h0m.12.16,0,0,0,0m-18,.06-.33-.21a4.24,4.24,0,0,1-.63-.64v0a3.34,3.34,0,0,0,1,.88m18.19.18-.11-.15.11.15m.12.19-.1-.15.1.15m46.26.06h0m-44.6,5.54a10.6,10.6,0,0,0-1.65-5.59,10.43,10.43,0,0,1,1.65,5.59m-15.53,6.24a9.68,9.68,0,0,0-1.51-.59,9.68,9.68,0,0,1,1.51.59m-5.4.21v0a3,3,0,0,1,1.87-1l.51,0a4.21,4.21,0,0,1,.62,0q-.3,0-.6,0a4.58,4.58,0,0,0-.53,0,3.07,3.07,0,0,0-1.87,1m12.53,3.14a6.79,6.79,0,0,1-.78,0,5.91,5.91,0,0,1-2.07-.65l.14.07a5.79,5.79,0,0,0,1.92.57,7.09,7.09,0,0,0,.79,0,7.25,7.25,0,0,0,3.53-.92l.18-.1a10,10,0,0,0,4.69-8.56c0,5-3.71,9.59-8.4,9.59m43.38,0a8.21,8.21,0,0,1-6.88-4.17,8.19,8.19,0,0,0,6.86,4.16,7,7,0,0,0,.79,0c3.15-.34,4.8-3.37,8.7-4.09a3.71,3.71,0,0,1,.67-.05l.52,0a3.15,3.15,0,0,1,1.92,1.07,3.17,3.17,0,0,0-1.92-1.06,4.89,4.89,0,0,0-.54,0,4.73,4.73,0,0,0-.65,0c-3.9.73-5.54,3.75-8.69,4.1a6.79,6.79,0,0,1-.78,0M181.27,76a7,7,0,0,0,1.31-2.9c.63-5-4.26-9.22-9.53-9.23,5.28,0,10.17,4.19,9.53,9.24A6.91,6.91,0,0,1,181.27,76M179,83.79a2.68,2.68,0,0,1-.27-.68,5.53,5.53,0,0,1-.12-1.44,12.84,12.84,0,0,1,2.62-5.6l.08-.08-.08.08a13.12,13.12,0,0,0-2.62,5.6,5.52,5.52,0,0,0,.13,1.44,3.09,3.09,0,0,0,.26.68"/></clipPath><clipPath id="clip-path-7"><path class="cls-1" d="M163.51,9.19c.34,3.15,3.36,4.79,4.1,8.68a5.27,5.27,0,0,1,0,1.19,3.26,3.26,0,0,1-1.32,2.14H139V45.67a3.24,3.24,0,0,0,1.93,1.49,5.94,5.94,0,0,0,1.44.13,13.32,13.32,0,0,0,5.59-2.62l.08-.08v0a7.21,7.21,0,0,1,2.9-1.31c5-.64,9.22,4.26,9.23,9.53S156,62.93,151,62.37c-3.15-.34-4.8-3.37-8.7-4.09a4.16,4.16,0,0,0-1.17,0A3.21,3.21,0,0,0,139,59.54V85h27.4a3.25,3.25,0,0,0,1.25-2.08,5.16,5.16,0,0,0,0-1.18c-.74-3.9-3.76-5.55-4.1-8.7-.56-5,4.27-9.19,9.54-9.19s10.16,4.18,9.53,9.23a7,7,0,0,1-1.31,2.9h0l-.08.08a12.84,12.84,0,0,0-2.62,5.6,5.53,5.53,0,0,0,.12,1.44,3.24,3.24,0,0,0,1.47,1.9h27.54V59.36a3.16,3.16,0,0,0-1.95-1.1,4.3,4.3,0,0,0-1.19,0c-3.9.72-5.55,3.75-8.7,4.09-5,.56-9.19-4.27-9.18-9.54s4.18-10.17,9.22-9.53a7.21,7.21,0,0,1,2.9,1.31v0l.08.08a13.36,13.36,0,0,0,5.6,2.62,6,6,0,0,0,1.44-.13,3.1,3.1,0,0,0,1.78-1.3V21.2H180.27a3.22,3.22,0,0,1-1.55-2,5.43,5.43,0,0,1-.12-1.44,12.8,12.8,0,0,1,2.62-5.59l.08-.09h0a6.88,6.88,0,0,0,1.31-2.88c.63-5.05-4.26-9.22-9.53-9.23h0c-5.26,0-10.08,4.14-9.52,9.19"/></clipPath><linearGradient id="linear-gradient-3" x1="-86.72" y1="716.95" x2="-85.72" y2="716.95" gradientTransform="matrix(68.76, 0, 0, -68.76, 6101.89, 49340.94)" gradientUnits="userSpaceOnUse"><stop offset="0" stop-color="#ffe59e"/><stop offset="0.5" stop-color="#ffc926"/><stop offset="1" stop-color="#f78d2f"/></linearGradient><clipPath id="clip-path-8"><path class="cls-1" d="M207.73,85h0V59.36l0,0,0,0V85"/></clipPath><clipPath id="clip-path-9"><path class="cls-1" d="M67.3,47.29h-.23a10.08,10.08,0,0,1-4-1.55q3.39-1.82,7.19-3.45v3.57a3.1,3.1,0,0,1-1.78,1.3,5.76,5.76,0,0,1-1.22.13"/></clipPath><linearGradient id="linear-gradient-4" x1="-86.72" y1="716.92" x2="-85.72" y2="716.92" gradientTransform="matrix(68.76, 0, 0, -68.76, 5964.37, 49340.22)" gradientUnits="userSpaceOnUse"><stop offset="0" stop-color="#c9df86"/><stop offset="0.5" stop-color="#acd589"/><stop offset="1" stop-color="#9ac27f"/></linearGradient><clipPath id="clip-path-10"><path class="cls-1" d="M139,85H111.66a3.13,3.13,0,0,1-1.45-1.9,1.94,1.94,0,0,1,0-.2,5.24,5.24,0,0,1-.08-1.24,12.89,12.89,0,0,1,2.62-5.6l.08-.08h0a7.07,7.07,0,0,0,1.32-2.89,7.19,7.19,0,0,0-.67-4,9.37,9.37,0,0,0-4.79-4.39l-.06,0h0a10.58,10.58,0,0,0-4-.82h0a10.33,10.33,0,0,0-6.9,2.66,7.87,7.87,0,0,0-2.67,5.83c0,.23,0,.47,0,.7.34,3.15,3.36,4.8,4.1,8.7,0,.13,0,.25,0,.38a4.3,4.3,0,0,1,0,.8A3.25,3.25,0,0,1,97.85,85H70.45V59.45a3.24,3.24,0,0,0-.36-.38,3,3,0,0,0-1.61-.87h-.16a4.18,4.18,0,0,0-.5,0c-.22,0-.43,0-.64,0-3.9.74-5.55,3.77-8.7,4.11a6.79,6.79,0,0,1-.78,0,7.25,7.25,0,0,1-3.26-.78,9.68,9.68,0,0,1-4.85-6.39,63.88,63.88,0,0,1,13.52-9.43,10.08,10.08,0,0,0,4,1.55h.23a5.76,5.76,0,0,0,1.22-.13,3.1,3.1,0,0,0,1.78-1.3v0h0l.14-.19v-3.4c17.21-7.42,40.28-11.95,65.64-11.95,1,0,1.92,0,2.88,0V45.67l.24.34v0l.09.11,0,.05a3.33,3.33,0,0,0,.73.62,2.84,2.84,0,0,0,.82.34,5.6,5.6,0,0,0,1.21.13h.23a13.32,13.32,0,0,0,5.59-2.62l.08-.08v0a7.21,7.21,0,0,1,2.9-1.31,6.77,6.77,0,0,1,.89-.06A7.21,7.21,0,0,1,155,44c.25.13.49.28.73.43l-.52-.31a8.92,8.92,0,0,1,2.6,2.23h0a1.83,1.83,0,0,0,.13.16l.07.1,0,.05.09.13,0,0a10.44,10.44,0,0,1,1.89,5.94,10,10,0,0,1-4.5,8.46l-.18.11a7.38,7.38,0,0,1-3.72,1,7.13,7.13,0,0,1-.79,0,5,5,0,0,1-1.1-.24,7.17,7.17,0,0,1-1-.42l.08,0c-1.36-.69-2.56-1.78-4.12-2.58l-.1,0,.11.06a9.64,9.64,0,0,0-1.53-.65l-.11,0,0,0-.09,0-.08,0h0c-.22-.06-.45-.12-.68-.16l-.34,0h-.35l-.5,0a3.12,3.12,0,0,0-1.82,1v.07l-.24.28V85"/></clipPath><linearGradient id="linear-gradient-5" x1="-86.72" y1="716.82" x2="-85.72" y2="716.82" gradientTransform="matrix(110.8, 0, 0, -110.8, 9657.72, 79480.23)" gradientUnits="userSpaceOnUse"><stop offset="0" stop-color="#82d4f2"/><stop offset="0.5" stop-color="#38c6f1"/><stop offset="1" stop-color="#3ca1cc"/></linearGradient><clipPath id="clip-path-11"><path class="cls-1" d="M207.73,85H180.19a3.78,3.78,0,0,1-1.2-1.22,3.09,3.09,0,0,1-.26-.68,5.52,5.52,0,0,1-.13-1.44,13.12,13.12,0,0,1,2.62-5.6l.08-.08h0a6.91,6.91,0,0,0,1.31-2.89c.64-5-4.25-9.23-9.53-9.24h0a10.29,10.29,0,0,0-6.91,2.67,7.67,7.67,0,0,0-2.62,6.52c0,.1,0,.2,0,.29.49,3,3.34,4.63,4.06,8.41a5.16,5.16,0,0,1,0,1.18A3.25,3.25,0,0,1,166.37,85H139V59.54l.24-.28v0a3.07,3.07,0,0,1,1.87-1,4.58,4.58,0,0,1,.53,0q.3,0,.6,0h0a7,7,0,0,1,.85.2,9.68,9.68,0,0,1,1.51.59l.16.08c1.56.8,2.76,1.89,4.12,2.58a5.91,5.91,0,0,0,2.07.65,6.79,6.79,0,0,0,.78,0c4.69,0,8.41-4.59,8.4-9.59a10.43,10.43,0,0,0-1.65-5.59h0l-.1-.15,0,0-.11-.15-.06-.09,0,0a1,1,0,0,0-.08-.11h0a8.83,8.83,0,0,0-3-2.6,7.21,7.21,0,0,0-3.24-.79,6.77,6.77,0,0,0-.89.06,7.21,7.21,0,0,0-2.9,1.31v0l-.08.08a13.32,13.32,0,0,1-5.59,2.62h-.23a5.6,5.6,0,0,1-1.21-.13,2.84,2.84,0,0,1-.82-.34l-.24-.17.33.21a3.34,3.34,0,0,1-1-.88v0l-.24-.34V30.29c27.28.37,51.7,6,68.76,14.75v.82a3.17,3.17,0,0,1-1.6,1.25l-.18,0a5.73,5.73,0,0,1-1.21.13h-.23a11.51,11.51,0,0,1-4.85-2.12l-.74-.5-.09-.08v0a7.17,7.17,0,0,0-2.89-1.31l-.42,0-.48,0a7.59,7.59,0,0,0-5.18,2.17,10.33,10.33,0,0,0-1.62,12.84,8.21,8.21,0,0,0,6.88,4.17,6.79,6.79,0,0,0,.78,0c3.15-.35,4.79-3.37,8.69-4.1a4.73,4.73,0,0,1,.65,0,4.89,4.89,0,0,1,.54,0,3.17,3.17,0,0,1,1.92,1.06l0,0V85"/></clipPath><linearGradient id="linear-gradient-6" x1="-86.72" y1="716.73" x2="-85.72" y2="716.73" gradientTransform="matrix(68.76, 0, 0, -68.76, 6101.89, 49340.94)" gradientUnits="userSpaceOnUse"><stop offset="0" stop-color="#ffecbb"/><stop offset="0.5" stop-color="#ffd877"/><stop offset="1" stop-color="#faaf6e"/></linearGradient><clipPath id="clip-path-12"><path class="cls-1" d="M70.3,85H42.75c-.14-.1-.28-.2-.4-.3a3.25,3.25,0,0,1-.81-1c-.09-.21-.16-.41-.24-.62h0a5.08,5.08,0,0,1-.13-1v-.43a13.12,13.12,0,0,1,2.62-5.6l.08-.08h0a6.91,6.91,0,0,0,1.31-2.89,7.22,7.22,0,0,0,0-2.08h0c0-.07,0-.14,0-.21v0c0-.07,0-.14,0-.21h0c0-.06,0-.12,0-.19s0,0,0,0l0-.16,0-.07,0-.11-.05-.14,0,0a8.6,8.6,0,0,0-3.12-4,33.65,33.65,0,0,1,7.89-10.61,9.59,9.59,0,0,0,5.18,6.57h0l.09,0,.12.06h0a7.27,7.27,0,0,0,2.71.53,6.85,6.85,0,0,0,.79,0c3.14-.35,4.79-3.37,8.7-4.1a4.58,4.58,0,0,1,.64,0,4.89,4.89,0,0,1,.54,0,3.17,3.17,0,0,1,1.92,1.06l0,0V85"/></clipPath><linearGradient id="linear-gradient-7" x1="-86.72" y1="716.55" x2="-85.72" y2="716.55" xlink:href="#linear-gradient-4"/></defs><title>INSA-logo-laikega</title><g id="Layer_2" data-name="Layer 2"><g id="Layer_1-2" data-name="Layer 1"><rect class="cls-2" x="0.6" y="95.03" width="1.1" height="25.6"/><path class="cls-2" d="M7.77,101v1.6a10.59,10.59,0,0,1,6.18-2,7.78,7.78,0,0,1,7.57,4.9,6.27,6.27,0,0,1,.44,2.56v12.51h-1.1V108.12c0-4.17-3.62-6.36-6.91-6.36A9.46,9.46,0,0,0,7.77,104v16.64H6.67V101"/><path class="cls-2" d="M33.44,102.12H27.66v11.63c0,4,2.45,5.82,5.6,5.82a6.81,6.81,0,0,0,.84,0l.14,1.1c-.33,0-.69,0-1,0-3.74,0-6.7-2.19-6.7-6.91V102.12H24.92V101h1.64V94.66h1.1V101h5.78"/><path class="cls-2" d="M50.59,120.63c-.81.07-1.61.15-2.34.15-8.12,0-12.36-4.94-12.36-10,0-7.6,5.37-10.09,8.7-10.09,5.19,0,8.19,4,8.19,9.22H37a8.43,8.43,0,0,0,0,.87c0,4.36,3.65,8.89,11.37,8.89.69,0,1.46,0,2.23-.11M37.13,108.78H51.61a7,7,0,0,0-7-7c-3.14,0-6.69,2.26-7.46,7"/><path class="cls-2" d="M70.56,120.66a12.81,12.81,0,0,1-1.69.11c-8.3,0-12.43-5-12.43-10s4.13-10,12.4-10c.8,0,1.86,0,2.81.11v21.94c0,4.39-2.85,8.52-7.28,8.52A7.82,7.82,0,0,1,59,128.86l.73-.81a6.73,6.73,0,0,0,4.68,2.2c3.77,0,6.19-3.63,6.19-7.43m-13-12.07c0,4.47,3.76,8.93,11.33,8.93.52,0,1.1,0,1.69-.08V101.9c-.63,0-1.21,0-1.72,0-7.54,0-11.3,4.42-11.3,8.88"/><path class="cls-2" d="M83.76,101.76A9.46,9.46,0,0,0,77.58,104v16.64h-1.1V101h1.1v1.6a10.69,10.69,0,0,1,6.18-2"/><path class="cls-2" d="M87.16,103.37a9.34,9.34,0,0,1,6.73-2.71c2.81,0,6.58,1.79,6.58,7.5v12.47h-1.1v-1.9A9.33,9.33,0,0,1,93,121c-4.09,0-7.75-2.81-7.75-7.2s3.62-7.13,7.75-7.13a9.11,9.11,0,0,1,6.4,2.52v-1c0-4.9-3.11-6.4-5.48-6.4A8.18,8.18,0,0,0,88,104.1m11.41,13v-6.37a8,8,0,0,0-6.4-3c-3.54,0-6.65,2.31-6.65,6s3.14,6.11,6.65,6.11a8.07,8.07,0,0,0,6.4-2.78"/><path class="cls-2" d="M112,102.12h-5.78v11.63c0,4,2.46,5.82,5.6,5.82a6.73,6.73,0,0,0,.84,0l.15,1.1c-.33,0-.7,0-1,0-3.73,0-6.69-2.19-6.69-6.91V102.12h-1.65V101h1.65V94.66h1.09V101H112"/><path class="cls-2" d="M116.82,119.09a11.85,11.85,0,0,0,3.58.7c4.35,0,7.13-2,7.13-4.57,0-1.91-2-3.22-5.63-3.85-4.21-.69-6.58-2.44-6.58-4.93,0-3.15,3.21-5.67,8.23-5.67a12.47,12.47,0,0,1,4,.77l-.44,1a11.84,11.84,0,0,0-3.58-.69c-4.36,0-7.14,2-7.14,4.57,0,1.9,2,3.22,5.64,3.84,4.2.69,6.58,2.45,6.58,4.94,0,3.14-3.22,5.66-8.23,5.66a12.16,12.16,0,0,1-4-.77"/><path class="cls-2" d="M132.65,96.86V95h1.83v1.83Zm1.46,4.17v19.6H133V101Z"/><path class="cls-2" d="M148.67,100.66a10.17,10.17,0,1,1-10.17,10.17,10.19,10.19,0,0,1,10.17-10.17m0,19.24a9.07,9.07,0,1,0-9.07-9.07,9.07,9.07,0,0,0,9.07,9.07"/><path class="cls-2" d="M172.66,100.66a10.17,10.17,0,1,1-10.17,10.17,10.19,10.19,0,0,1,10.17-10.17m0,19.24a9.07,9.07,0,1,0-9.07-9.07,9.07,9.07,0,0,0,9.07,9.07"/><path class="cls-2" d="M188.16,101v1.6a10.62,10.62,0,0,1,6.18-2,7.77,7.77,0,0,1,7.57,4.9,6.27,6.27,0,0,1,.44,2.56v12.51h-1.1V108.12c0-4.17-3.62-6.36-6.91-6.36a9.48,9.48,0,0,0-6.18,2.23v16.64h-1.1V101"/><path class="cls-2" d="M206.74,96.86V95h1.83v1.83ZM208.2,101v19.6h-1.09V101Z"/><g class="cls-3"><path class="cls-2" d="M89.74,147.46a4.87,4.87,0,0,0,4.72,2.85c2.87,0,5.06-1.91,5.06-4.61,0-2.39-2.79-3.64-5.06-4.44-2.56-.88-5.63-2.3-5.63-5.23,0-3.21,2.58-5.46,5.91-5.46a5.69,5.69,0,0,1,5.52,3.35l-.79.35a4.89,4.89,0,0,0-4.73-2.85c-2.87,0-5.06,1.91-5.06,4.61,0,2.39,2.79,3.64,5.06,4.44,2.56.88,5.63,2.3,5.63,5.23,0,3.21-2.58,5.46-5.91,5.46a5.66,5.66,0,0,1-5.52-3.36"/></g><path class="cls-2" d="M103.65,132.33v-1.42h1.42v1.42Zm1.13,3.24v15.25h-.85V135.57Z"/><path class="cls-2" d="M109.51,125.42V136.8a8.23,8.23,0,0,1,4.75-1.51,6,6,0,0,1,5.88,3.81,5.17,5.17,0,0,1,.37,2v9.73h-.85v-9.67a4.45,4.45,0,0,0-.32-1.74,5.18,5.18,0,0,0-5.12-3.27,7.19,7.19,0,0,0-4.71,1.74v12.94h-.86v-25.4"/><path class="cls-2" d="M129.44,136.43H125v9c0,3.1,1.9,4.52,4.35,4.52a5.33,5.33,0,0,0,.65,0l.12.86a6.87,6.87,0,0,1-.77,0c-2.9,0-5.21-1.71-5.21-5.38v-9h-1.27v-.86h1.27v-4.94H125v4.94h4.49"/><path class="cls-2" d="M133.71,137.39a7.29,7.29,0,0,1,5.23-2.1c2.19,0,5.12,1.39,5.12,5.83v9.7h-.85v-1.48a7.3,7.3,0,0,1-5,1.76c-3.19,0-6-2.19-6-5.6s2.82-5.55,6-5.55a7.09,7.09,0,0,1,5,2v-.8c0-3.81-2.42-5-4.27-5a6.35,6.35,0,0,0-4.6,1.82m8.87,10.13v-5a6.22,6.22,0,0,0-5-2.33c-2.76,0-5.18,1.79-5.18,4.69s2.45,4.75,5.18,4.75a6.29,6.29,0,0,0,5-2.16"/><path class="cls-2" d="M148.36,149.62a9.14,9.14,0,0,0,2.78.54c3.39,0,5.55-1.56,5.55-3.55,0-1.48-1.57-2.5-4.38-3-3.27-.54-5.12-1.9-5.12-3.84,0-2.44,2.5-4.41,6.4-4.41a9.77,9.77,0,0,1,3.13.6l-.34.8a9.15,9.15,0,0,0-2.79-.54c-3.38,0-5.55,1.56-5.55,3.55,0,1.48,1.57,2.5,4.38,3,3.28.54,5.12,1.9,5.12,3.84,0,2.44-2.5,4.41-6.4,4.41a9.66,9.66,0,0,1-3.12-.6"/><path class="cls-2" d="M161.52,135.57v9.76a5.09,5.09,0,0,0,10.18,0v-9.76h.86v9.76a5.95,5.95,0,0,1-11.89,0v-9.76"/><path class="cls-2" d="M181.49,136.43H177v9c0,3.1,1.9,4.52,4.35,4.52a5.33,5.33,0,0,0,.65,0l.12.86a6.87,6.87,0,0,1-.77,0c-2.9,0-5.21-1.71-5.21-5.38v-9h-1.28v-.86h1.28v-4.94H177v4.94h4.49"/><path class="cls-2" d="M185.24,135.57v9.76a5.1,5.1,0,0,0,10.19,0v-9.76h.85v9.76a5.95,5.95,0,0,1-11.89,0v-9.76"/><path class="cls-2" d="M200.58,149.62a9.08,9.08,0,0,0,2.78.54c3.39,0,5.55-1.56,5.55-3.55,0-1.48-1.57-2.5-4.38-3-3.27-.54-5.12-1.9-5.12-3.84,0-2.44,2.5-4.41,6.4-4.41a9.77,9.77,0,0,1,3.13.6l-.34.8a9.2,9.2,0,0,0-2.79-.54c-3.39,0-5.55,1.56-5.55,3.55,0,1.48,1.57,2.5,4.38,3,3.27.54,5.12,1.9,5.12,3.84,0,2.44-2.5,4.41-6.4,4.41a9.77,9.77,0,0,1-3.13-.6"/><path class="cls-4" d="M194.39,44.45a7.1,7.1,0,0,1,2.9,1.32v0l.08.08a13.07,13.07,0,0,0,5.6,2.62,5.48,5.48,0,0,0,1.44-.13A3.15,3.15,0,0,0,206.19,47V22.37H178.73a3.26,3.26,0,0,1-1.55-2,5.46,5.46,0,0,1-.12-1.44,12.8,12.8,0,0,1,2.62-5.59l.08-.08h0a7,7,0,0,0,1.31-2.9c.63-5.05-4.26-9.22-9.53-9.23s-10.1,4.13-9.54,9.19c.34,3.15,3.36,4.8,4.1,8.7a6.52,6.52,0,0,1,0,1.17,3.35,3.35,0,0,1-1.34,2.16H110.21a3.3,3.3,0,0,1-1.55-2,5.48,5.48,0,0,1-.13-1.44,12.91,12.91,0,0,1,2.62-5.59l.08-.08h0a7.16,7.16,0,0,0,1.32-2.9c.63-5.05-4.26-9.22-9.53-9.23s-10.1,4.13-9.54,9.19c.34,3.15,3.36,4.8,4.1,8.7a5.08,5.08,0,0,1,0,1.17,3.37,3.37,0,0,1-1.32,2.16H68.9V46.76l-.14.2V22.37H41.3a3.26,3.26,0,0,1-1.55-2A5.46,5.46,0,0,1,39.63,19a12.8,12.8,0,0,1,2.62-5.59l.08-.08h0a7,7,0,0,0,1.31-2.9c.63-5.05-4.26-9.22-9.53-9.23S24,5.28,24.53,10.34c.35,3.15,3.37,4.8,4.11,8.7a6.52,6.52,0,0,1,0,1.17,3.35,3.35,0,0,1-1.34,2.16H0V46.82a3.21,3.21,0,0,0,1.93,1.49,5.48,5.48,0,0,0,1.44.13A13.08,13.08,0,0,0,9,45.82L9,45.74v0a7.16,7.16,0,0,1,2.9-1.32c5-.63,9.22,4.27,9.23,9.53S17,64.08,12,63.52c-3.15-.34-4.8-3.35-8.7-4.09a5.18,5.18,0,0,0-1.18,0A3.29,3.29,0,0,0,0,60.69V86.17H27.4a3.33,3.33,0,0,0,1.26-2.08,6.74,6.74,0,0,0,0-1.19c-.74-3.9-3.76-5.54-4.11-8.69-.55-5,4.28-9.2,9.55-9.19s10.16,4.18,9.53,9.23a7,7,0,0,1-1.31,2.89h0l-.08.08a12.89,12.89,0,0,0-2.62,5.6,5.5,5.5,0,0,0,.12,1.44,3.24,3.24,0,0,0,1.46,1.91H68.76V60.52a3.17,3.17,0,0,0-2-1.11,5.17,5.17,0,0,0-1.18,0c-3.9.74-5.55,3.75-8.7,4.09-5.05.56-9.19-4.26-9.18-9.54a10.38,10.38,0,0,1,.2-2,10.46,10.46,0,0,0-.19,1.94c0,5.27,4.13,10.1,9.19,9.54,3.15-.34,4.79-3.36,8.7-4.09a5.16,5.16,0,0,1,1.18,0A3.28,3.28,0,0,1,68.9,60.6V86.17H96.31a3.28,3.28,0,0,0,1.25-2.08,5.26,5.26,0,0,0,0-1.19c-.74-3.9-3.76-5.54-4.1-8.69-.56-5,4.27-9.2,9.54-9.19s10.16,4.18,9.53,9.23a7.12,7.12,0,0,1-1.32,2.89h0l-.08.08a13,13,0,0,0-2.62,5.6,5.52,5.52,0,0,0,.13,1.44,3.21,3.21,0,0,0,1.46,1.91h54.71a3.33,3.33,0,0,0,1.26-2.08,6.74,6.74,0,0,0,0-1.19c-.74-3.9-3.76-5.54-4.1-8.69-.56-5,4.27-9.2,9.54-9.19s10.16,4.18,9.53,9.23a7,7,0,0,1-1.31,2.89h0l-.08.08a12.89,12.89,0,0,0-2.62,5.6,5.5,5.5,0,0,0,.12,1.44,3.24,3.24,0,0,0,1.46,1.91h27.55V60.52a3.17,3.17,0,0,0-2-1.11,5.17,5.17,0,0,0-1.18,0c-3.9.74-5.55,3.75-8.7,4.09-5,.56-9.19-4.26-9.18-9.54s4.18-10.16,9.22-9.53m-55.68,3.6a3.31,3.31,0,0,1-1.05-.85v-.07a3.29,3.29,0,0,0,1.05.92m.38.16-.3-.1.3.1m.44,11.2a3.13,3.13,0,0,0-1.87,1v-.09a3.12,3.12,0,0,1,1.82-1,5.91,5.91,0,0,1,1.19,0,8.88,8.88,0,0,1,2.56.91,8.9,8.9,0,0,0-2.52-.88,5.17,5.17,0,0,0-1.18,0m9.88,4.11a5.66,5.66,0,0,1-2.14-.68,5.82,5.82,0,0,0,2.09.66c5.06.55,9.2-4.27,9.19-9.54a10.08,10.08,0,0,0-4.85-8.66A10.05,10.05,0,0,1,158.6,54c0,5.28-4.14,10.1-9.19,9.54"/><g class="cls-5"><g class="cls-6"><rect class="cls-7" x="49.27" width="110.83" height="85"/></g></g><g class="cls-8"><g class="cls-9"><rect class="cls-10" x="1.54" width="68.76" height="85.01"/></g></g><g class="cls-11"><g class="cls-12"><rect class="cls-13" x="138.97" width="68.76" height="85"/></g></g><g class="cls-14"><rect class="cls-15" x="206.19" y="59.33" width="1.54" height="25.68"/></g><path class="cls-16" d="M206.19,85h-26a3.5,3.5,0,0,1-1.2-1.22,3.78,3.78,0,0,0,1.2,1.22h26"/><path class="cls-15" d="M155.4,61.37h0l.18-.11h0l-.18.1m-60.46,11a7.87,7.87,0,0,1,2.67-5.83h0a7.84,7.84,0,0,0-2.69,5.84M97.86,85h0a3.25,3.25,0,0,0,1.25-2.08,4.3,4.3,0,0,0,0-.8,5.48,5.48,0,0,1,0,.81A3.27,3.27,0,0,1,97.86,85m68.51,0h0a3.25,3.25,0,0,0,1.25-2.08,5.16,5.16,0,0,0,0-1.18c-.72-3.78-3.57-5.44-4.06-8.41.49,3,3.35,4.63,4.07,8.41a5.26,5.26,0,0,1,0,1.19A3.19,3.19,0,0,1,166.37,85"/><path class="cls-16" d="M70.3,45.82V42.29h0v3.53h0m69,.33-.09-.11.09.11m18.55.24h0m.21.24a9.24,9.24,0,0,0-2.29-2.17c-.24-.15-.48-.3-.73-.43a8.83,8.83,0,0,1,3,2.6m0,0-.07-.1.07.1m-18,.17a3.33,3.33,0,0,1-.73-.62,3,3,0,0,0,.49.45l.24.17m18.1,0-.09-.13.09.13M142.92,58.41h0m.17.05-.09,0,.09,0m.16,0-.11,0,.11,0m-73.16.56a3.15,3.15,0,0,0-1.61-.87,3,3,0,0,1,1.61.87m74.68.08-.16-.08,0,0,.11,0m-5.56.11v-.07a3.12,3.12,0,0,1,1.82-1l.5,0h0a4.89,4.89,0,0,0-.54,0,3.07,3.07,0,0,0-1.82,1v.06m16.37,2h0a10,10,0,0,0,4.5-8.46,10.44,10.44,0,0,0-1.89-5.94,10.4,10.4,0,0,1,1.9,6,10,10,0,0,1-4.52,8.46M57.71,62.35a7.14,7.14,0,0,1-3.27-.79,7.25,7.25,0,0,0,3.26.78,6.79,6.79,0,0,0,.78,0c3.15-.34,4.8-3.37,8.7-4.11.21,0,.42,0,.64,0a4.18,4.18,0,0,1,.5,0l-.45,0c-.23,0-.46,0-.69,0-3.9.74-5.55,3.76-8.7,4.11a6.74,6.74,0,0,1-.77,0m93.19,0a5,5,0,0,1-1.1-.24,5,5,0,0,0,1.1.24m.79,0a7.38,7.38,0,0,0,3.72-1h0a7.34,7.34,0,0,1-3.71,1m-43.14,2.29h0M97.61,66.52a10.33,10.33,0,0,1,6.9-2.66h0a10.34,10.34,0,0,0-6.89,2.65h0m15.79,2.59a9.37,9.37,0,0,0-4.79-4.39,9.37,9.37,0,0,1,4.79,4.39M97.27,85h0m68.52,0H111.66a3.11,3.11,0,0,1-1.45-1.9,1.94,1.94,0,0,1,0-.2,1.94,1.94,0,0,0,0,.2,3.13,3.13,0,0,0,1.45,1.9h54.13"/><g class="cls-17"><rect class="cls-18" x="63.11" y="42.29" width="7.18" height="5"/></g><path class="cls-15" d="M163.51,73.05a7.67,7.67,0,0,1,2.62-6.52l0,0a7.69,7.69,0,0,0-2.65,6.54"/><path class="cls-16" d="M143.1,58.48a7,7,0,0,0-.85-.2h0a7.35,7.35,0,0,1,.84.2m23,8.05a10.29,10.29,0,0,1,6.9-2.67h0a10.33,10.33,0,0,0-6.87,2.65l0,0"/><path class="cls-15" d="M188.24,58.25a10.3,10.3,0,0,1,1.62-12.84l0,0a10.31,10.31,0,0,0-1.66,12.86"/><path class="cls-16" d="M189.86,45.41A7.59,7.59,0,0,1,195,43.24l.48,0-.46,0a7.55,7.55,0,0,0-5.16,2.15l0,0"/><path class="cls-15" d="M206.12,47.11h0a3.21,3.21,0,0,0,1.6-1.25v0a3.21,3.21,0,0,1-1.61,1.22"/><path class="cls-16" d="M158.15,46.75l-.08-.11.08.11m.1.14-.06-.09.06.09m.13.19,0,0,0,0m.11.16h0m46,0a11.27,11.27,0,0,1-4.85-2.12,11.51,11.51,0,0,0,4.85,2.12m.23,0a5.73,5.73,0,0,0,1.21-.13l.18,0h0l-.17,0a5.67,5.67,0,0,1-1.21.13"/><g class="cls-19"><rect class="cls-20" x="49.59" y="30.27" width="110.51" height="54.74"/></g><g class="cls-21"><rect class="cls-22" x="138.97" y="30.29" width="68.76" height="54.72"/></g><rect class="cls-15" x="68.76" y="85.01" width="0.14" height="0.01"/><path class="cls-16" d="M54.72,61.78a9.6,9.6,0,0,1-5.17-6.57h0a9.63,9.63,0,0,0,5.16,6.58m.1,0-.09,0,.09,0m.15.07h0M44.78,69.81a8.58,8.58,0,0,0-3.12-4h0a8.6,8.6,0,0,1,3.12,4m.07.19-.05-.14.05.14m0,.18a.19.19,0,0,0,0-.07.19.19,0,0,1,0,.07m.07.21s0,0,0,0,0,0,0,0m0,.19h0m.05.23v0m0,.21h0M68.76,85h-26a3.08,3.08,0,0,1-.41-.3c.12.1.26.2.4.3h26m1.55,0h0V59.36l0,0,0,0V85"/><g class="cls-23"><rect class="cls-24" x="41.17" y="55.21" width="29.13" height="29.8"/></g></g></g></svg>