<?xml version="1.0" encoding="UTF-8"?>
<!DOCTYPE svg PUBLIC "-//W3C//DTD SVG 1.1//EN" "http://www.w3.org/Graphics/SVG/1.1/DTD/svg11.dtd">
<!-- Creator: CorelDRAW 2020 (64-Bit) -->
<svg xmlns="http://www.w3.org/2000/svg" xml:space="preserve" width="45.8992mm" height="13.208mm" version="1.1" style="shape-rendering:geometricPrecision; text-rendering:geometricPrecision; image-rendering:optimizeQuality; fill-rule:evenodd; clip-rule:evenodd"
viewBox="0 0 2460.85 708.14"
 xmlns:xlink="http://www.w3.org/1999/xlink"
 xmlns:xodm="http://www.corel.com/coreldraw/odm/2003">
 <defs>
  <style type="text/css">
   <![CDATA[
    .fil2 {fill:#003087}
    .fil1 {fill:white}
    .fil0 {fill:#003087;fill-rule:nonzero}
   ]]>
  </style>
 </defs>
 <g id="Layer_x0020_1">
  <metadata id="CorelCorpID_0Corel-Layer"/>
  <g id="Kultuuriministeerium_vapp_est_rgb-1v.svg">
   <g>
    <g>
     <path class="fil0" d="M2390.37 289.96l-22.45 0 0 102.63 17.79 0 0 -67.74 0.54 -0.09 22.1 67.83 12.08 0 22.01 -67.39 0.54 0.08 0 67.31 17.87 0 0 -102.63 -22.37 0 -23.88 80.69 -0.52 0 -23.71 -80.69zm-65.79 0l0 67.16c0,7.39 -1.81,13.14 -5.43,17.24 -3.61,4.11 -8.52,6.16 -14.74,6.16 -6.18,0 -11.08,-2.06 -14.72,-6.16 -3.65,-4.1 -5.47,-9.85 -5.47,-17.24l0 -67.16 -17.79 0 0 67.31c0,11.57 3.5,20.59 10.49,27.09 6.98,6.49 16.14,9.73 27.48,9.73 11.33,0 20.5,-3.24 27.49,-9.73 6.98,-6.5 10.47,-15.52 10.47,-27.09l0 -67.31 -17.78 0zm-83.6 0l-17.78 0 0 102.63 17.78 0 0 -102.63zm-93.64 13.56l16.48 0c5.17,0 9.04,1.57 11.63,4.66 2.58,3.11 3.88,7.32 3.88,12.6 0,5.34 -1.28,9.46 -3.83,12.33 -2.55,2.87 -6.44,4.31 -11.67,4.31l-16.48 0.01 0 -33.92zm17.97 47.49c4.71,0 8.32,1.5 10.84,4.5 2.52,2.99 3.79,7.19 3.79,12.58l0 9.26c0,3.05 0.07,6.05 0.21,8.98 0.16,2.95 0.52,5.02 1.12,6.26l18.41 0.01 0 -1.5c-0.76,-1.24 -1.28,-3.17 -1.55,-5.82 -0.26,-2.63 -0.4,-5.25 -0.4,-7.84l0 -9.43c0,-6.16 -1.23,-11.35 -3.69,-15.55 -2.47,-4.2 -6.47,-7.15 -11.98,-8.85 4.93,-2.28 8.68,-5.43 11.28,-9.43 2.58,-3.99 3.88,-8.71 3.88,-14.18 0,-9.46 -2.96,-16.83 -8.85,-22.12 -5.9,-5.29 -14.08,-7.92 -24.54,-7.92l-34.26 0 0 102.63 17.79 0 0 -41.58 17.97 0zm-62.89 -18.59l-37.79 0 0 -28.9 44.22 0 0 -13.56 -62.02 0 0 102.63 62.02 0 0 -13.58 -44.22 0 0 -33.03 37.79 0 0 -13.57zm-86.33 0l-37.79 0 0 -28.9 44.22 0 0 -13.56 -62.02 0 0 102.63 62.02 0 0 -13.58 -44.22 0 0 -33.03 37.79 0 0 -13.57zm-72.67 -42.46l-70.3 0 0 13.56 25.99 0 0 89.07 17.8 0 0 -89.07 26.51 0 0 -13.56zm-99.59 86.43c-3,2.75 -7.43,4.13 -13.3,4.13 -5.46,0 -9.94,-1.44 -13.44,-4.28 -3.5,-2.86 -5.24,-7.53 -5.24,-14l-17.08 0 -0.27 0.53c-0.29,10.53 2.91,18.38 9.6,23.55 6.7,5.18 15.51,7.76 26.43,7.76 10.87,0 19.52,-2.54 25.95,-7.6 6.43,-5.07 9.64,-12.04 9.64,-20.87 0,-8.61 -2.55,-15.19 -7.67,-19.74 -5.1,-4.54 -13.04,-8.37 -23.78,-11.5 -7.99,-2.44 -13.26,-4.89 -15.82,-7.36 -2.55,-2.48 -3.83,-5.89 -3.83,-10.25 0,-4.24 1.31,-7.75 3.92,-10.51 2.62,-2.77 6.63,-4.14 12.03,-4.14 5.34,0 9.39,1.65 12.12,4.96 2.73,3.3 4.09,7.67 4.09,13.11l17.1 0 0.17 -0.53c0.24,-9.75 -2.62,-17.38 -8.58,-22.88 -5.96,-5.48 -14.27,-8.23 -24.89,-8.23 -10.33,0 -18.53,2.61 -24.61,7.82 -6.09,5.23 -9.12,12.1 -9.12,20.59 0,8.74 2.54,15.32 7.61,19.72 5.09,4.4 13.21,8.14 24.36,11.26 7.29,2.4 12.29,4.91 15.02,7.5 2.73,2.61 4.1,6.02 4.1,10.23 0,4.4 -1.51,7.96 -4.5,10.71l0 0zm-71.7 -86.43l-17.79 0 0 102.63 17.79 0 0 -102.63zm-44.93 0l-17.87 0 0 70.83 -0.54 0.17 -39.38 -71 -17.79 0 0 102.63 17.78 0 0 -70.92 0.54 -0.18 39.38 71.1 17.87 0 0 -102.63zm-102.17 0l-17.79 0 0 102.63 17.79 0 0 -102.63zm-115.22 0l-22.47 0 0 102.63 17.8 0 0 -67.74 0.53 -0.09 22.11 67.83 12.07 0 22.03 -67.39 0.52 0.08 0 67.31 17.89 0 0 -102.63 -22.38 0 -23.86 80.69 -0.54 0 -23.69 -80.69zm-49.07 0l-17.78 0 0 102.63 17.78 0 0 -102.63zm-93.64 13.56l16.48 0c5.17,0 9.04,1.57 11.63,4.66 2.58,3.11 3.88,7.32 3.88,12.6 0,5.34 -1.27,9.46 -3.83,12.33 -2.55,2.87 -6.44,4.31 -11.67,4.31l-16.48 0.01 0 -33.92zm17.97 47.49c4.71,0 8.32,1.5 10.84,4.5 2.52,2.99 3.79,7.19 3.79,12.58l0 9.26c0,3.05 0.07,6.05 0.23,8.98 0.14,2.95 0.51,5.02 1.1,6.26l18.41 0.01 0 -1.5c-0.76,-1.24 -1.28,-3.17 -1.54,-5.82 -0.27,-2.63 -0.41,-5.25 -0.41,-7.84l0 -9.43c0,-6.16 -1.23,-11.35 -3.69,-15.55 -2.47,-4.2 -6.46,-7.15 -11.98,-8.85 4.93,-2.28 8.7,-5.43 11.28,-9.43 2.58,-3.99 3.88,-8.71 3.88,-14.18 0,-9.46 -2.95,-16.83 -8.85,-22.12 -5.9,-5.29 -14.08,-7.92 -24.54,-7.92l-34.26 0 0 102.63 17.79 0 0 -41.58 17.97 0zm-79.1 -61.05l0 67.16c0,7.39 -1.81,13.14 -5.42,17.24 -3.61,4.11 -8.52,6.16 -14.75,6.16 -6.18,0 -11.07,-2.06 -14.72,-6.16 -3.64,-4.1 -5.45,-9.85 -5.45,-17.24l0 -67.16 -17.81 0 0 67.31c0,11.57 3.5,20.59 10.49,27.09 6.99,6.49 16.15,9.73 27.49,9.73 11.33,0 20.49,-3.24 27.48,-9.73 6.99,-6.5 10.49,-15.52 10.49,-27.09l0 -67.31 -17.8 0zm-100.33 0l0 67.16c0,7.39 -1.8,13.14 -5.43,17.24 -3.61,4.11 -8.53,6.16 -14.76,6.16 -6.15,0 -11.06,-2.06 -14.7,-6.16 -3.65,-4.1 -5.47,-9.85 -5.47,-17.24l0.01 -67.16 -17.79 0 0 67.31c0,11.57 3.5,20.59 10.47,27.09 6.99,6.49 16.15,9.73 27.49,9.73 11.34,0 20.51,-3.24 27.48,-9.73 6.99,-6.5 10.49,-15.52 10.49,-27.09l0 -67.31 -17.79 0zm-75.32 0l-70.3 0 0 13.56 25.99 0 0 89.07 17.8 0 0 -89.07 26.51 0 0 -13.56zm-111.53 0l-17.81 0 0 102.63 55.68 0 0 -13.58 -37.87 0 0 -89.05zm-61.13 0l0 67.16c0,7.39 -1.81,13.14 -5.43,17.24 -3.61,4.11 -8.53,6.16 -14.76,6.16 -6.16,0 -11.07,-2.06 -14.7,-6.16 -3.65,-4.1 -5.47,-9.85 -5.47,-17.24l0 -67.16 -17.78 0 0 67.31c0,11.57 3.5,20.59 10.47,27.09 6.99,6.49 16.15,9.73 27.48,9.73 11.35,0 20.51,-3.24 27.49,-9.73 6.99,-6.5 10.49,-15.52 10.49,-27.09l0 -67.31 -17.79 0zm-94.08 102.63l21.85 0 -43.43 -67.39 40.34 -60.88 -21.31 0 -33.93 56.38 -10.65 0 0 -56.38 -17.89 0 0 128.27 17.89 0 0 -57.52 12.25 0 34.89 57.52z"/>
    </g>
   </g>
   <g id="_2021565450368">
    <g>
     <path class="fil1" d="M319.58 21.56c-8.36,-6.56 -13.8,-9.61 -23.73,-13.37 -11.18,-4.22 -19.04,-5.77 -30.06,-5.77 -13.37,0 -24.47,1.51 -39.79,4.55 -20.97,4.17 -31.88,11.25 -52.23,16.7 -20.45,5.51 -32.59,9.07 -53.74,7.9 -11.15,-0.61 -17.48,-1.64 -28.23,-4.56 -4.85,10.23 -8.18,15.8 -14.88,24.91 -8.13,11.02 -14.15,16.12 -23.99,25.67 -9.8,9.48 -17.04,13.02 -26.27,23.08 -8.47,9.22 -14.34,14.16 -19.28,25.67 -2.78,6.44 -5.03,10.29 -4.86,17.31 0.12,5.05 0.55,8.19 3.03,12.6 3.06,5.42 6.23,8.2 12.01,10.48 4.98,1.95 8.65,2.92 13.66,1.07 5.58,-2.09 8.61,-5.63 10.18,-11.4 0.92,-3.37 1.31,-5.71 0,-8.95 -0.88,-2.2 -1.79,-3.38 -3.65,-4.86 4.86,1.27 7.55,2.41 11.84,5 5.45,3.31 7.89,6.2 12.15,10.95 5.89,6.54 8.18,11.13 12.46,18.81 11.39,20.41 15.21,33.91 18.22,57.08 1.89,14.63 1.2,23.08 0.61,37.82 -1.01,24.78 -2.94,38.88 -8.65,63 -3.71,15.66 -5.64,24.69 -12.01,39.48 -13.31,30.94 -25.77,47.65 -51.61,69.25l-6.99 27.62c5.06,22.65 9.28,35.32 18.83,56.48 8.51,18.86 13.54,29.74 26.12,46.16 12.47,16.31 20.73,25.06 37.39,37.05 22.29,16.04 38.07,20.75 64.48,28.23 21.41,6.07 34.79,6.84 56.63,12.75 16.75,4.54 26.58,6.52 42.53,13.07 15.31,6.26 23.54,11.09 37.04,20.65 9.43,6.65 14.51,10.84 22.83,18.83 8.33,-7.99 13.39,-12.18 22.82,-18.83 13.52,-9.56 21.75,-14.4 37.04,-20.65 15.96,-6.54 25.78,-8.52 42.53,-13.07 21.85,-5.92 35.22,-6.68 56.63,-12.75 26.42,-7.48 42.2,-12.19 64.48,-28.23 16.67,-11.99 24.92,-20.74 37.4,-37.05 12.57,-16.42 17.62,-27.3 26.12,-46.16 9.55,-21.16 13.77,-33.83 18.83,-56.48l-6.98 -27.62c-25.86,-21.6 -38.31,-38.3 -51.64,-69.25 -6.34,-14.77 -0.14,-1.22 -11.98,-39.48 -4.46,-14.35 -7.65,-38.23 -8.65,-63 -0.61,-14.74 -1.3,-23.19 0.61,-37.82 3,-23.17 6.83,-36.67 18.21,-57.08 4.3,-7.68 6.58,-12.28 12.46,-18.81 4.26,-4.75 6.7,-7.64 12.13,-10.95 4.3,-2.59 6.99,-3.74 11.84,-5 -1.84,1.47 -2.73,2.66 -3.64,4.86 -1.31,3.24 -0.9,5.58 0,8.95 1.58,5.76 4.59,9.31 10.18,11.4 5.02,1.85 8.69,0.87 13.67,-1.07 5.78,-2.27 8.95,-5.06 12,-10.48 2.47,-4.41 2.92,-7.55 3.03,-12.6 0.17,-7.02 -2.09,-10.87 -4.85,-17.31 -4.95,-11.5 -10.82,-16.45 -19.3,-25.67 -9.22,-10.05 -16.46,-13.59 -26.26,-23.08 -9.83,-9.54 -15.87,-14.64 -23.99,-25.67 -6.71,-9.11 -10.05,-14.67 -14.88,-24.91 -10.77,2.92 -17.1,3.95 -28.24,4.56 -21.16,1.17 -33.28,-2.39 -53.76,-7.9 -20.34,-5.45 -31.25,-12.53 -52.23,-16.7 -15.31,-3.05 -26.41,-4.55 -39.77,-4.55 -11.02,0 -18.9,1.55 -30.07,5.77 -9.95,3.75 -15.38,6.81 -23.73,13.37z"/>
     <path class="fil0" d="M259.82 494.89c0.08,3.47 -0.24,7.02 -0.93,10.43 -2.68,-0.69 -5.24,-0.69 -7.99,-0.69 -2.69,0 -5.36,0.04 -7.99,0.69 -0.8,-4 -0.98,-7.91 -0.93,-11.92l3.61 4.3c0.34,-0.73 1.88,-4.59 2.72,-4.79l0.19 -0.09c1.02,0.54 1.29,0.48 2.42,0.48 1.16,0 1.44,0.06 2.53,-0.54 0.94,0.4 1.52,2.32 1.92,3.11 0.31,0.65 0.61,1.34 0.81,1.82l3.64 -4.3 0 1.5z"/>
     <path class="fil2" d="M380.03 442.05c-6.2,1.18 -9.81,1.47 -16.14,1.47 -10.76,-0.03 -16.46,-5.14 -27.17,-4.49 -6.07,0.39 -9.78,0.34 -15.26,2.9 -6.18,2.92 -10.28,5.46 -13.08,11.73 -2.56,5.78 -2.73,10.27 -0.51,16.21 2.17,5.71 6.13,8.76 10.67,11.53 6.72,4.14 11.44,3.99 19.32,4.64 11.1,0.85 17.18,-1.48 27.88,-3.91 9.17,-2.07 14.08,-4.29 23.09,-6.91 9.71,-2.83 15.22,-4.36 24.99,-6.98 3.9,-3.81 6.3,-5.83 10.73,-9.05 4.62,-3.31 7.41,-5.01 12.51,-7.56l-0.42 -3.16c-9.55,1.87 -14.9,3.16 -24.3,5.72 -11.68,3.23 -17.96,6.19 -29.58,9.64 -10.35,3.05 -16.1,5.3 -26.71,7.2 -5.99,1.06 -9.37,2.3 -15.46,1.95 -5.29,-0.29 -9.29,0.55 -13.33,-2.91 -2.04,-1.75 -3.54,-2.9 -4.02,-5.52 -0.34,-1.81 -0.48,-3.13 0.55,-4.61 0.93,-1.35 2.07,-1.98 3.71,-2.04 2.07,-0.04 3.75,1 4.44,2.98 0.55,1.79 0.1,3.41 -1.32,4.59 2.22,0.21 3.55,0.2 5.74,-0.17 2.62,-0.42 4.44,-0.27 6.39,-2.04 1.81,-1.59 2.65,-3.13 2.68,-5.54 0.03,-2.82 -1.18,-4.75 -3.48,-6.33 -1.52,-1.04 -2.62,-1.38 -4.46,-1.44 2.68,-0.88 4.68,-0.75 7.2,0.54 1.31,0.69 2.05,1.24 2.96,2.44 1.44,1.87 1.89,3.55 1.57,5.94 4.69,-0.44 7.41,-1.1 11.73,-2.92 4.41,-1.89 6.52,-3.72 10.39,-6.54 3.58,-2.64 5.51,-4.27 8.72,-7.36z"/>
     <path class="fil2" d="M250.97 509.22c-3.16,0 -5.48,0 -7.81,2.13 -0.63,0.54 -1.05,0.88 -1.44,1.62 -0.83,1.53 -0.69,2.92 0.03,4.51 1.51,3.25 5.58,1.08 9.22,1.08 3.61,0 7.67,2.17 9.21,-1.08 0.7,-1.59 0.83,-2.98 0,-4.51 -0.41,-0.73 -0.8,-1.08 -1.41,-1.62 -2.37,-2.13 -4.68,-2.13 -7.8,-2.13z"/>
     <path class="fil2" d="M419.76 527.27c-1.9,1.99 -3.54,2.96 -4.33,5.58 -0.55,1.78 -0.25,4.76 -0.25,4.76l0.35 3.65c0.16,1.59 0.08,2.54 -0.38,4.05 -0.36,1.38 -0.57,2.23 -1.55,3.27l-6.98 7.41c0.87,-1.53 1.21,-2.52 1.46,-4.26 0.26,-1.72 0.46,-2.82 -0.19,-4.46l-2.3 -5.83c-0.4,-0.94 -0.1,-1.62 0.06,-2.62 0.11,-0.83 0.19,-1.13 0.5,-2.16l-3.9 4.19c-0.96,1.05 -1.48,1.74 -1.93,3.11 -0.47,1.5 -0.66,2.53 -0.17,4l2.42 7.17c0.42,1.23 0.2,2.03 -0.11,3.31 -0.45,1.77 -1.13,2.66 -2.38,4l-6.96 7.37c0.89,-1.49 1.2,-2.48 1.45,-4.21 0.27,-1.73 0.47,-2.86 -0.21,-4.49l-2.27 -5.48c-0.4,-0.99 -0.09,-1.64 0.05,-2.66 0.13,-0.85 0.2,-1.14 0.53,-2.13l-3.92 4.05c-0.97,1.04 -1.48,1.79 -1.92,3.11 -0.49,1.48 -0.66,2.58 -0.17,4.06l2.42 7.12c0.41,1.24 0.17,2.07 -0.12,3.31 -0.45,1.77 -1.12,2.72 -2.38,4.04l-6.96 7.39c0.65,-1.2 0.92,-1.89 1.14,-3.23 0.27,-1.62 0.27,-2.68 -0.18,-4.24l-1.69 -6.09c-1.4,1.69 -2.28,2.62 -3.94,4.1 -2.18,1.93 -3.54,2.92 -6.06,4.4 -0.27,2.33 -0.76,3.71 -2.03,5.74 -1.57,2.48 -2.99,3.67 -5.55,5.05 -3.18,1.73 -5.55,2.17 -9.15,1.77 0.93,-1.74 1.18,-3 1.02,-4.99 -0.16,-1.73 -0.35,-2.96 -1.54,-4.26 -1.01,-1.13 -1.93,-1.62 -3.46,-1.83 0.31,0.8 0.46,1.24 0.76,2.04 0.36,0.98 0.55,1.57 0.92,2.57 -1.61,2.42 -2.7,3.66 -4.81,5.58 -2.1,1.93 -3.41,2.86 -5.89,4.2 -1.86,-0.04 -2.96,-0.1 -4.84,-0.14 -1.44,-0.1 -2.28,-0.4 -3.7,-0.21 -1.69,0.25 -2.58,0.75 -4.06,1.69 -1.93,1.18 -2.93,2.17 -4.14,4.16 -0.75,-2.42 -0.94,-3.87 -0.85,-6.39 0.2,-4.32 0.89,-7.17 3.71,-10.37 1.67,-1.93 2.96,-2.86 5.34,-3.86 -4.06,0.53 -6.52,1.87 -9.24,4.99 -1.94,2.23 -2.72,3.91 -3.31,6.83 -2.18,0.59 -3.41,1.08 -5.34,2.22 -2.53,1.44 -3.87,2.47 -5.74,4.59 -1.33,-2.33 -1.6,-4.2 -0.93,-6.82 0.43,-1.83 1,-2.92 2.38,-4.25 0.87,-0.84 1.47,-1.2 2.61,-1.69 0.99,-2.17 1.72,-3.37 3.31,-5.15 2.57,-2.92 4.54,-4.34 8.16,-5.72 -2.62,-0.35 -4.26,-0.1 -6.68,0.88 -2.36,1.03 -3.51,2.13 -5.18,4.11 -1.54,1.83 -2.22,3.07 -2.92,5.34 -2.28,0.65 -3.57,1.18 -5.58,2.42 -2.03,1.18 -3.11,2.02 -4.79,3.75 -1,-1.62 -1.24,-2.8 -1.1,-4.69 0.16,-2.13 0.94,-3.37 2.32,-4.99 1.44,-1.68 2.62,-2.42 4.7,-3.17 0.49,-3.51 1.34,-5.58 3.51,-8.44 2.13,-2.78 3.82,-4.16 7.02,-5.58 2.48,-1.1 4.06,-1.39 6.75,-1.49 4.03,-0.16 6.16,1.44 10.06,2.36 3.47,0.79 5.33,2.17 8.89,2.09 3.93,-0.1 6.43,-0.79 9.61,-3.17 2.97,-2.17 4.4,-4.1 5.63,-7.57 1.51,-0.58 2.33,-1.03 3.61,-2.02 1.48,-1.14 2.24,-1.99 3.31,-3.52 -2.59,1.2 -4.19,1.75 -7.02,2.24 -3.14,0.54 -5.02,0.54 -8.18,0.14 0.68,-0.85 1.06,-1.28 1.69,-2.17 3.37,-4.75 3.01,-8.65 6.1,-13.54 2.65,-4.16 4.16,-6.67 7.98,-9.78 5.52,-4.55 10.08,-5.16 17,-7.03 4.47,-1.22 7.26,-0.75 11.67,-2.22 2.28,-0.79 4.03,-0.63 5.71,-2.41 1.18,-1.2 1.82,-2.12 2.04,-3.82 0.17,-1.27 0.07,-2.06 -0.42,-3.2 2.91,-1.69 4.72,-2.32 7.98,-2.92 3.99,-0.69 6.46,-0.59 10.39,0.4 2.4,0.59 3.89,0.93 5.91,2.32 2.06,1.43 3.27,2.53 4.26,4.78 1.24,2.87 1.24,5.16 0,8.02 -3.01,1.8 -4.6,3.02 -7.02,5.54z"/>
     <g>
      <path class="fil2" d="M516.51 555.26c-0.29,-2.03 -0.53,-3.27 -1.77,-4.85 -1.27,-1.62 -3.01,-2.33 -4.38,-2.96 -1.31,-0.59 -4,-0.94 -5.44,-0.94l-1.68 0c-1.55,0 -2.47,0.04 -3.96,-0.39 -1.45,-0.4 -2.41,-0.6 -3.45,-1.64l-5.06 -5.39c0.71,0.34 1.22,0.46 2.02,0.6 0.71,0.1 1.1,0.16 1.79,0.16l7.24 0c1.59,0 2.5,0.2 4.05,0.57 1.14,0.26 1.75,0.46 2.85,0.91l-3.88 -6.18c-0.92,-1.45 -1.45,-2.32 -2.85,-3.32 -1.41,-0.99 -2.44,-1.48 -4.2,-1.48l-9.05 0c-1.48,0 -2.46,0.1 -3.78,-0.59 -1.27,-0.64 -1.7,-1.44 -2.61,-2.53l-3.95 -4.99c0.88,0.49 1.46,0.65 2.44,0.89 0.83,0.14 1.29,0.25 2.12,0.25l7.94 0c1.93,0 3.04,0.3 4.87,0.83 1.36,0.46 2.12,0.75 3.38,1.44l-7.36 -9.64c-0.78,-0.99 -1.27,-1.53 -2.35,-2.12 -1.24,-0.73 -2.1,-0.99 -3.52,-0.99l-7.01 -0.01c-1.37,0 -2.21,-0.04 -3.45,-0.59 -1.27,-0.59 -2.04,-1.03 -2.72,-2.22l-5.84 -9.78c4.74,-0.06 7.55,-0.59 11.96,-2.42 5.11,-2.13 8.3,-3.75 11.52,-8.25 3.24,-4.55 4.28,-8.18 4.07,-13.76 -0.2,-4.69 -1.14,-7.51 -3.69,-11.46 -2.41,-3.74 -4.56,-5.37 -8.29,-7.77 -3.72,-2.43 -6.42,-2.69 -10.53,-4.44 -4.66,-2.04 -9.53,-0.8 -11.93,-5.3 -1.12,-2.09 -1.93,-3.71 -1.21,-5.98 0.7,-2.13 1.93,-3.37 4.03,-4.12 -4.99,-1.77 -8.76,-1.67 -13.64,0.46 -3.38,1.49 -5.58,2.68 -7.44,5.89 -2.02,3.51 -2.34,6.47 -1.12,10.32 -4.77,2.42 -7.33,4.06 -11.63,7.23 -5.94,4.4 -9.04,7.3 -13.8,12.94 4.59,-1.13 7.24,-1.62 11.94,-2.21 4.22,-0.55 6.65,-0.7 10.92,-0.75 -0.2,-2.42 0.13,-3.95 1.28,-6.1 2.09,-3.88 5.26,-5.84 9.67,-5.91 -1.93,0.73 -2.96,1.58 -4.17,3.26 -1.59,2.27 -2.68,4.35 -1.61,6.93 0.93,2.21 2.56,3.54 4.99,3.65 1.32,0.1 2.2,-0.16 3.34,-0.9 -0.35,-1.48 -0.33,-2.41 0.04,-3.89 1.02,-3.96 4.43,-6.39 8.5,-6.09 -1.27,0.61 -1.9,1.14 -2.82,2.23 -2.76,3.23 -3.09,7.45 -0.56,10.88 2.11,2.86 5,3.99 8.5,3.36 -0.54,-0.92 -0.72,-1.55 -0.75,-2.62 -0.01,-3.11 3.17,-4.99 6.32,-4.99 3.36,0.05 6.18,2.48 6.33,5.83 0.32,6.78 -5.47,6.27 -10.21,6.86 -3.07,0.45 -4.8,-0.63 -7.84,-1.22 -4.41,-0.85 -6.79,-1.79 -11.22,-2.58 -9.7,-1.81 -15.33,-2.72 -25.18,-2.21 -7.71,0.38 -11.98,1.68 -19.56,3.13 -12.26,2.36 -18.86,5.12 -31.09,7.6 -13.64,2.71 -21.4,5.19 -35.29,5.33 -14.88,0.2 -23.51,-0.99 -37.77,-5.13 1.53,2.72 2.12,4.5 2.62,7.55 0.27,1.73 0.24,2.73 0.24,4.46 -1.44,-3.51 -2.51,-5.4 -4.64,-8.5 -2.82,-4.21 -5.94,-5.45 -8.51,-9.83 -0.59,-1.06 -1.13,-1.6 -1.48,-2.77 -0.35,-1.24 -0.45,-2.05 -0.16,-3.31 0.21,-1 0.48,-1.59 1.1,-2.42 0,0.93 0.14,1.48 0.54,2.27 0.31,0.54 0.51,0.85 0.94,1.25l8.89 8.88c1,-6.13 0.8,-9.95 -0.88,-15.92 -1.29,-4.46 -2.41,-6.91 -5.05,-10.73 1.47,-3.97 1.93,-6.44 2.04,-10.73 0.08,-3.25 -0.11,-5.13 -0.87,-8.3 -1.95,1.16 -3.02,1.87 -4.85,3.21 -1.22,0.93 -2.16,1.24 -3.09,2.47 -1.08,1.41 -1.47,2.48 -1.73,4.26 -0.2,1.64 -0.1,2.62 0.4,4.16 -1.82,-1.09 -2.77,-2.14 -3.71,-4.06 -0.88,-1.83 -1.48,-3.16 -0.93,-5.15 0.42,-1.48 1.07,-2.22 2.22,-3.21 1.82,-1.58 3.61,-0.97 5.88,-1.72 2.13,-0.72 3.31,-1.17 5.39,-2.03 -0.1,-0.42 -0.2,-0.65 -0.35,-1.05 -0.2,-0.34 -0.34,-0.56 -0.58,-0.88 -3.07,-0.79 -4.95,-0.94 -8.14,-0.68 -1.75,0.16 -2.73,0.32 -4.41,0.77 -2.28,-2.56 -4.13,-3.76 -7.41,-4.79 -2.03,-0.65 -3.27,-0.79 -5.34,-0.75 -2.68,-2.33 -4.57,-3.36 -7.96,-4.3 -3.09,-0.83 -4.99,-0.47 -8.15,-0.47 -3.21,0 -5.1,-0.36 -8.19,0.47 -3.38,0.94 -5.31,1.97 -7.93,4.3 -2.12,-0.04 -3.36,0.1 -5.39,0.75 -3.27,1.03 -5.14,2.23 -7.38,4.79 -1.72,-0.45 -2.71,-0.62 -4.43,-0.77 -3.2,-0.27 -5.07,-0.11 -8.16,0.68 -0.2,0.29 -0.29,0.49 -0.49,0.83 -0.2,0.43 -0.29,0.65 -0.43,1.1 2.07,0.86 3.25,1.31 5.38,2.03 2.27,0.75 4.06,0.14 5.88,1.72 1.2,0.99 1.82,1.73 2.22,3.21 0.55,1.99 -0.05,3.31 -0.94,5.15 -0.94,1.92 -1.84,2.97 -3.7,4.06 0.52,-1.54 0.61,-2.53 0.39,-4.16 -0.24,-1.77 -0.65,-2.85 -1.73,-4.26 -0.93,-1.23 -1.84,-1.53 -3.06,-2.47 -1.83,-1.34 -2.92,-2.07 -4.85,-3.31 -0.73,3.21 -0.93,5.11 -0.89,8.4 0.1,4.28 0.6,6.75 2.09,10.73 -2.68,3.82 -3.82,6.27 -5.1,10.73 -1.68,5.97 -1.88,9.8 -0.83,15.92l8.85 -8.88c0.43,-0.41 0.63,-0.72 0.93,-1.25 0.39,-0.79 0.55,-1.34 0.55,-2.27 0.64,0.83 0.89,1.42 1.12,2.42 0.27,1.27 0.17,2.07 -0.17,3.31 -0.37,1.17 -0.87,1.72 -1.5,2.77 -2.56,4.37 -5.68,5.61 -8.5,9.83 -2.13,3.1 -3.17,5.03 -4.65,8.5 -0.55,-1.2 -0.72,-1.99 -0.75,-3.31 0,-1.28 0.16,-2.03 0.62,-3.17 -4.72,-2.71 -7.35,-4.44 -11.69,-7.77 -4.14,-3.16 -6.78,-4.76 -10.18,-8.68 -4.06,-4.65 -8.81,-7.4 -8.14,-13.51 0.35,-3.17 2.21,-4.46 3.39,-7.41 1.48,-3.65 3.46,-5.64 3.27,-9.59 -0.18,-4.26 -1.49,-7.01 -4.61,-9.85 0.23,-2.45 -0.1,-4.04 -1.32,-6.27 -1.64,-3.01 -3.67,-4.54 -7.03,-5.34 1.14,1.9 1.46,3.31 1.31,5.54 -0.11,1.97 -0.56,3.17 -1.65,4.81 1.15,1.57 1.53,2.86 1.48,4.82 -0.1,2.28 -0.85,3.82 -2.62,5.36 0.55,-3.11 0.2,-5.19 -1.28,-7.95 -1.54,-2.82 -3.11,-4.31 -6.07,-5.55 -0.89,-3.95 -4.12,-6.51 -8.16,-6.47 -2.42,0.03 -4,0.69 -5.73,2.4 2.16,0.28 3.57,1.14 4.78,2.93 0.69,1.05 1,1.77 1.14,2.98 -0.84,0.55 -1.24,0.94 -1.87,1.69 -0.75,0.93 -1.08,1.58 -1.47,2.77 3.15,0.14 5.17,1.13 7.19,3.51 2.14,2.47 2.82,4.75 2.44,7.95 -0.65,-1.89 -1.24,-2.96 -2.58,-4.44 -3.31,-3.61 -7.28,-4.79 -12.04,-3.67 -1.9,-2.03 -3.89,-2.79 -6.65,-2.61 -2.9,0.2 -4.85,1.28 -6.47,3.71 1.87,0.08 3.01,0.43 4.59,1.47 1.24,0.75 1.83,1.36 2.66,2.53 -0.79,0.93 -1.18,1.52 -1.72,2.65 -1.14,2.38 -1.48,4.02 -1.3,6.64 0.2,2.92 0.71,4.82 2.58,7.02 2.03,2.38 3.95,3.86 7.05,3.7 1,-0.05 1.61,-0.24 2.59,-0.55 1.08,-0.34 1.64,-1.17 2.76,-1.06 2.77,0.33 3.72,4.03 0,5.31 -0.99,0.34 -1.58,-0.34 -2.59,-0.55 -1.27,-0.29 -1.9,-0.89 -3.18,-0.73 -1.69,0.14 -2.68,0.92 -3.75,2.21 -1.14,1.36 -1.54,2.48 -1.57,4.26 -1.25,0.38 -2.1,0.38 -3.34,0 -0.93,-0.29 -1.48,-0.62 -2.22,-1.3 -0.64,2.39 -0.28,4.27 1.14,6.31 1.44,2.02 3.07,2.93 5.52,3.1 1.59,3.31 3.37,5.06 6.68,6.63 1.61,0.79 2.62,1.34 4.4,1.3 2.22,-0.06 3.21,-1.3 5.2,-2.23 1.32,-0.59 1.87,-1.48 3.34,-1.64 1.55,-0.19 2.58,0.06 3.86,0.89 1.83,1.24 2.65,2.82 2.58,4.99 -0.06,2.83 -2.13,4.31 -4.7,5.55 -1.93,0.87 -3.35,1.07 -5.44,0.63l4.59 4.3c1.59,1.44 2.56,2.21 4.49,3.11 2.03,0.93 3.37,1.38 5.59,1.38l0.87 -0.01c2.2,0 3.45,0 5.55,0.55 2.28,0.54 3.82,0.75 5.44,2.37l4.76 4.65c-1.2,-0.46 -1.95,-0.61 -3.23,-0.79 -1.04,-0.21 -1.64,-0.31 -2.68,-0.31l-1.13 0c-2.42,0 -3.81,-0.24 -6.19,-0.78 -1.82,-0.41 -2.8,-0.7 -4.54,-1.3l7.52 7.12c1.53,1.48 2.52,2.22 4.45,3.13 2.07,0.92 3.36,1.37 5.58,1.37l0.89 -0.01c2.17,0 3.45,0 5.6,0.55 2.21,0.54 3.75,0.79 5.43,2.36l4.85 4.65c-1.18,-0.45 -1.93,-0.61 -3.21,-0.79 -1.04,-0.2 -1.64,-0.26 -2.66,-0.26l-1.5 0c-2.41,0 -3.81,-0.29 -6.17,-0.77 -1.83,-0.45 -2.82,-0.71 -4.56,-1.36l8.7 7.77c1.1,1 1.74,1.58 3.07,2.18 1.44,0.64 2.33,0.99 3.87,0.99l10.33 0c-8.75,4.84 -11.08,7.36 -18.74,11.28 -8.37,4.28 -12.8,10.04 -22.2,9.43 -3.62,-0.24 -5.48,-1.48 -9.03,-2.23 -2.33,-0.49 -3.61,-1.08 -5.94,-1.13 -3.11,0 -5.11,0.24 -7.75,1.88 -2.03,1.24 -3.05,2.22 -4.26,4.26 2.37,-0.85 3.95,-1 6.47,-0.55 2.76,0.45 4.37,1.24 6.48,3.11 -2.09,-0.45 -3.27,-0.61 -5.4,-0.55 -4.17,0.1 -6.89,0.46 -10.33,2.78 -3.36,2.33 -5.38,4.34 -6.32,8.34 -0.5,2.23 -0.5,3.67 0,5.89 -1.04,0.78 -1.58,1.34 -2.38,2.37 -1.33,1.69 -2.36,2.72 -2.42,4.85 -0.04,2.17 0.6,3.65 2.22,5.05 0.79,-2.33 1.94,-3.67 4.06,-4.85 1.44,-0.79 2.41,-1.08 4.11,-1.14 0.59,0.49 0.93,0.75 1.63,1.14 0.89,0.49 1.43,0.69 2.41,0.93l2.04 -2.41c-0.35,-3.92 0.45,-6.58 2.96,-9.66 2.96,-3.55 6.27,-5.03 10.92,-4.78 -4.31,1.18 -6.88,3.45 -8.51,7.55 -1.03,2.52 -1.18,4.2 -0.73,6.88 -1.93,0.99 -2.92,2.02 -3.87,3.95 -1.44,3.07 -1.24,5.83 0.71,8.6 1.23,-2.16 2.26,-3.26 4.24,-4.79 2.27,-1.68 3.85,-2.42 6.63,-2.96 1.44,0.44 2.27,0.6 3.76,0.75 2.21,0.24 3.51,0.18 5.69,-0.21 -0.9,-1.62 -1.2,-2.71 -1.31,-4.59 -0.2,-4.55 1.75,-8.34 5.94,-9.99 1.79,-0.68 2.95,-0.83 4.81,-0.53 -1.93,0.5 -3.02,1.14 -4.4,2.58 -2.18,2.17 -3.52,4.2 -2.97,7.22 0.39,2.31 1.34,3.75 3.31,4.99 1.29,0.79 2.19,1.09 3.71,1.14 -0.02,1.18 -0.1,1.82 -0.4,2.96 -0.29,1.38 -0.59,2.12 -1.28,3.42 2.96,-0.34 4.75,-1.09 7.02,-2.98 1.62,-1.34 2.4,-2.31 3.36,-4.14 1.54,-0.39 2.42,-0.85 3.69,-1.89 2.62,-2.12 4.14,-4.5 3.62,-7.85 -0.3,-2.07 -0.98,-3.31 -2.51,-4.7 -0.31,-2.92 2.07,-5.54 4.99,-5.58 3.09,0 5.44,3.11 4.99,6.18 -0.16,1.04 -0.4,1.62 -1.03,2.48l8.99 -0.11c1.38,-0.04 2.21,-0.24 3.45,-0.88 1.44,-0.69 2.23,-1.29 3.02,-2.62l3.61 -5.98c0.65,-1.1 1.14,-1.68 2.22,-2.42 0.99,-0.75 1.62,-1.28 2.86,-1.24l6.48 0.05c-0.75,0.44 -1.14,0.73 -1.76,1.38 -0.51,0.55 -0.83,0.83 -1.21,1.53l-2.92 4.89c-0.91,1.53 -1.68,2.22 -2.96,3.41 -0.92,0.88 -1.49,1.32 -2.52,2.07l10.73 -0.2c1.44,0 2.27,-0.19 3.51,-0.83 1.38,-0.69 2.19,-1.33 3.02,-2.68l7.61 -11.87c-1.65,-1.44 -7.02,-4.04 -8.59,-8.5 -0.71,-1.87 -0.94,-3.07 -0.85,-5.09 0.06,-1.68 0.35,-2.62 0.94,-4.26 0.54,-1.58 1.34,-2.21 1.83,-3.79 0.39,-1.24 0.59,-1.93 0.63,-3.23 0,-0.97 -0.04,-1.58 -0.29,-2.56l3.93 2.17c0.92,0.51 1.41,0.94 1.96,1.88 0.54,1 0.66,1.69 0.59,2.78 -0.05,1.14 -0.55,1.67 -0.88,2.76 -0.62,1.77 -1.4,2.62 -1.59,4.5 -0.18,1.83 -0.14,3.07 0.65,4.79 0.94,2.18 2.46,2.83 4.34,4.37 2.39,1.91 3.96,2.8 6.78,3.99l0 -16.98 6.27 0 0 15.7c0,1.44 0.16,2.33 0.9,3.53 0.59,1.07 1.13,1.66 2.21,2.21l5 2.43c1.77,0.83 3.05,0.83 4.99,0.73 1.58,-0.09 2.47,-0.34 3.9,-0.93l9.01 -3.91c-1.14,0.14 -1.83,0.1 -2.97,-0.19 -1.24,-0.3 -1.79,-0.91 -2.93,-1.54l-11.66 -6.21c1.39,-1.14 2.03,-2.38 2.56,-4.21 0.51,-1.54 0.51,-2.53 0.41,-4.14 -0.16,-1.59 -0.61,-2.38 -0.94,-3.9 -0.23,-0.95 -0.54,-1.44 -0.54,-2.39 -0.05,-0.99 0,-1.53 0.34,-2.42 0.33,-0.73 0.49,-1.24 1.18,-1.67l4.99 -3.31c-0.14,0.85 -0.2,1.32 -0.2,2.22 0,1.09 0.16,1.68 0.37,2.77 0.28,1.33 0.77,1.97 1.11,3.31 0.35,1.44 0.55,2.28 0.55,3.72 0.05,2.8 -0.42,4.5 -1.66,7.01l12.04 6.68c1.2,0.63 1.94,1.04 3.32,1.14 1.32,0.14 2.11,0.1 3.36,-0.4l11.08 -4.35c-1.17,0.19 -1.89,0.14 -2.97,-0.16 -1.29,-0.34 -1.83,-0.89 -2.96,-1.54l-11.46 -6.27c-0.71,-0.39 -1.14,-0.49 -1.84,-0.73 -0.79,-0.29 -1.23,-0.51 -2.07,-0.75 0.55,-0.84 0.65,-1.33 0.94,-2.22 0.44,-1.28 0.69,-2.03 0.93,-3.36 0.55,-3.03 0.2,-4.91 -0.4,-7.92 -0.54,-3.16 -2.02,-4.59 -2.52,-7.75 -0.29,-0.88 -0.4,-1.44 -0.34,-2.36 0.01,-0.95 -0.16,-1.69 0.54,-2.27l6.04 -5.06c-0.15,0.9 -0.21,1.44 -0.15,2.38 0,0.73 0.01,1.14 0.15,1.88 0.3,1.42 0.93,2.12 1.48,3.51 0.6,1.44 0.93,2.27 1.48,3.75 0.99,-0.93 1.52,-1.52 2.4,-2.66 1.51,-1.88 2.4,-3.02 3.13,-5.33 0.65,-1.89 0.85,-3.07 0.76,-5.06 -0.16,-2.06 -0.31,-3.35 -1.44,-5.07l-2.99 -4.41c-0.72,-1.08 -0.97,-1.91 -1.07,-3.2 -0.16,-1.75 0.35,-2.72 1.07,-4.35l2.99 -6.88c-0.4,1.24 -0.51,2.07 -0.35,3.37 0.13,0.93 0.25,1.54 0.69,2.37l2.38 4.49 3.06 4 3.01 6.98c0.44,2.51 0.44,4.05 0,6.57 -0.61,3.11 -1.64,4.7 -3.27,7.47 -2.66,4.5 -7.45,8.26 -9.09,9.88 0,0 0.17,1.3 0.16,2.13 -0.06,2.07 -0.45,3.25 -1.28,5.2l15.51 8.29c1.24,0.66 1.98,1.04 3.34,1.2 1.31,0.1 2.21,0.2 3.39,-0.45l7.57 -4.04c-1.1,0.38 -1.95,0.34 -2.98,-0.2 -1.17,-0.55 -1.58,-1.39 -2.03,-2.58 -1.08,-2.92 1.13,-5.78 3.68,-7.02 10.36,-4.99 21.18,-8.76 34.4,-14.93 14.86,-6.98 22.27,-13 37.55,-19.03 8.24,-3.22 12.67,-7.18 21.55,-7.18 5.51,0 9.19,-0.1 13.87,2.86 2.27,1.45 3.58,2.39 5.06,4.61 1.32,1.97 1.7,3.31 2.22,5.58 1.28,5.48 -2.44,8.7 -1.86,14.23 0.69,6.27 1.89,10.19 5.94,14.99 3.37,4 6.46,5.09 11.05,7.61 3.08,1.64 5.74,1.18 8.19,3.71 1.16,1.14 1.95,1.87 2.4,3.51 0.37,1.29 0.37,2.19 0,3.51 2.57,0.04 4.07,-0.2 6.47,-1.14 3.61,-1.38 5.6,-2.9 7.76,-6.07l9.97 -0.01c0.98,1.68 1.27,2.81 1.31,4.75 0.03,2.17 0,3.81 -1.48,5.43 -1.53,1.64 -3.21,1.48 -5.41,1.83 -3.07,0.49 -4.85,-0.83 -7.97,-0.75 -3.48,0.16 -5.75,-0.04 -8.82,1.69 -3.44,1.93 -5.13,4.04 -6.49,7.76 -0.84,2.46 -1.03,4.05 -0.73,6.61 -1.41,0.94 -2.13,1.69 -2.96,3.17 -1.6,2.92 -1.6,5.58 0,8.5 1.58,-1.82 2.62,-2.78 4.64,-4.05 1.62,-1.08 2.62,-1.59 4.43,-2.22 0.23,-5.35 2.87,-9.15 7.76,-11.28 2.86,-1.24 4.92,-1.44 7.97,-0.73 -3.57,0.73 -5.67,1.92 -8.13,4.59 -3.17,3.45 -4.34,6.63 -4.07,11.31 -1.01,1.38 -1.34,2.52 -1.24,4.21 0.12,1.88 0.66,3.02 1.97,4.3 2.52,-4.16 5.28,-6.23 9.99,-7.41 2.39,-0.6 3.85,-0.69 6.31,-0.4 -1.07,-3.96 -0.4,-7.12 2.2,-10.33 2.73,-3.37 5.94,-4.7 10.22,-4.26 -2.54,0.73 -4.02,1.73 -5.61,3.86 -1.45,2.03 -2.24,3.61 -2.02,6.13 0.24,2.76 1.35,4.59 3.7,6.07 -0.1,1.38 0.03,2.27 0.54,3.51 0.58,1.38 1.14,2.13 2.28,3.02 0.39,-1.93 0.99,-3.07 2.36,-4.5 0.98,-1 1.68,-1.44 2.93,-2.03 2.09,-0.89 3.54,-0.3 5.76,-0.75 3.71,-0.68 6.43,-0.24 9.23,-2.76 2.07,-1.83 3.16,-3.42 3.55,-6.19 0.52,-3.55 -0.51,-6.22 -3.18,-8.6 0.56,-3.65 0.69,-5.72 0.56,-9.44 -0.14,-3.85 -0.45,-6.02 -1.37,-9.78l1.17 0.01c1.17,0 1.44,0.16 2.99,0.55 1.13,0.24 2.45,1.47 3.24,3.01 0.56,-2.09 0.63,-3.41 0.29,-5.54l0 0zm-239.04 -99.21c-0.11,1.64 -0.65,2.92 -1.89,4.3 -1.32,1.48 -2.42,2.33 -4.2,2.33l-4.4 0c1.14,1.13 2.07,2 2.07,3.81 0,2.32 -1.87,4.2 -4.2,4.2 -2.33,0 -4.2,-1.87 -4.2,-4.2 0,-1.2 0.49,-2.26 1.28,-3.02l0.79 -0.79 -4.79 0c-1.08,0 -1.73,0.59 -2.56,1.44l0 -1.18c0,-0.75 -0.06,-1.37 0,-1.96 0.1,-1.24 1.24,-2.65 2.56,-2.65l14.04 0c1.93,0 4.1,-0.88 5.5,-2.27l0 0zm-15.17 -17c0.76,0 1.21,0.2 1.86,0.57 0.66,0.36 0.99,0.66 1.48,1.31l4.55 5.88c0.34,0.43 0.4,0.79 0.73,1.14 0.51,0.43 0.87,0.61 1.5,0.73l-3.69 0c-1.12,0 -1.79,-0.2 -2.79,-0.73 -0.93,-0.57 -1.33,-1.14 -2.02,-2.03l-3.68 -4.85c-0.31,-0.44 -0.48,-0.69 -0.87,-1.09 -0.49,-0.45 -0.8,-0.63 -1.35,-0.93l4.28 -0.01zm-14.84 -2.24c1.07,0 1.73,0.35 2.66,0.96 0.79,0.48 1.22,0.87 1.77,1.68l5.38 7.75c0.35,0.45 0.55,0.69 0.94,1.08 0.65,0.63 1.09,0.94 1.88,1.32l-4.93 0.01c-1.14,0 -1.9,-0.24 -2.82,-0.93 -0.72,-0.54 -0.92,-1.08 -1.38,-1.87l-4.46 -6.83c-0.44,-0.69 -0.69,-1.08 -1.3,-1.68 -0.83,-0.75 -1.43,-1.11 -2.48,-1.49l4.72 -0.01zm-12.26 2.24c0.75,0 1.18,0.2 1.82,0.57 0.69,0.36 1.04,0.66 1.49,1.31l4.59 5.88c0.3,0.43 0.35,0.79 0.73,1.14 0.45,0.43 0.85,0.61 1.47,0.73l-3.68 0c-1.14,0 -1.83,-0.2 -2.76,-0.73 -1,-0.57 -1.39,-1.14 -2.06,-2.03l-3.64 -4.85c-0.34,-0.44 -0.55,-0.69 -0.94,-1.09 -0.47,-0.45 -0.79,-0.63 -1.34,-0.93l4.32 -0.01zm-5.26 19.27l14 0c0.84,0 1.33,0.4 1.98,1.17 0.86,1 0.6,2.22 0.6,3.44l-0.13 1.06c-0.72,-0.72 -1.31,-1.31 -2.45,-1.31l-4.79 0c1.2,1.13 2.09,2 2.09,3.81 0,2.32 -1.89,4.2 -4.19,4.2 -2.3,0 -4.17,-1.87 -4.17,-4.2 0,-1.2 0.43,-2.26 1.24,-3.02l0.83 -0.79 -4.4 0c-1.83,0 -2.86,-0.85 -4.2,-2.33 -1.24,-1.38 -1.83,-2.66 -1.89,-4.3 1.34,1.38 3.53,2.27 5.48,2.27l0 0zm-5.82 76.58l-1.68 4.85c-0.49,1.37 -0.55,2.27 -0.8,3.69 -0.46,3.07 -0.54,4.79 -0.31,7.86 -0.92,-0.73 -1.41,-1.24 -2.2,-2.12 -0.84,-0.95 -1.18,-1.52 -1.87,-2.51 -1.54,-2.39 -2.19,-3.87 -3.11,-6.43l-0.2 -0.85c-2.73,-0.85 -6.98,-1.14 -9.29,-4.05 -2.14,-2.68 -2.34,-4.91 -2.82,-8.27 -0.45,-2.8 -0.45,-4.5 0,-7.31l2.62 -7.69 2.65 -4.51 2.09 -4.94c0.4,-0.99 0.49,-1.64 0.6,-2.68 0.14,-1.42 0.07,-2.33 -0.3,-3.71l3.67 5.58c0.88,1.4 0.93,2.48 0.93,4.06 0.03,1.74 -0.1,2.84 -0.93,4.36l-3.67 6.92c-1.04,1.97 -1.14,3.37 -1.24,5.63 -0.1,2.17 -0.34,3.61 0.62,5.58 1.46,3.06 3.77,4.6 7.15,4.85 0.04,-1.44 0.1,-2.27 0.36,-3.66 0.28,-1.58 0.82,-2.39 1.07,-3.96 0.1,-0.69 0.14,-1.08 0.2,-1.82 0,-0.94 -0.06,-1.48 -0.2,-2.42l6.07 8.7c0.65,0.9 0.69,1.58 0.75,2.62 0.1,0.88 0.1,1.43 -0.16,2.22l0 0zm60.28 -60.51c-1.15,2.07 -2.16,3.16 -4.07,4.61 -2.03,1.55 -3.56,1.77 -5.9,2.78 -0.52,0.24 -0.87,0.18 -1.31,0.57 -0.49,0.44 -0.49,0.99 -0.75,1.62 -0.35,1.1 -0.2,1.74 -0.55,2.82 -0.44,1.34 -0.73,2.19 -1.65,3.31 -1.27,1.49 -2.35,2.18 -4.27,2.62 -0.03,2.72 -0.16,4.31 -0.49,7.03 -0.4,3.25 -0.8,5.07 -1.67,8.28 0.53,1 0.76,1.64 1.12,2.72 0.55,1.77 0.72,2.81 0.65,4.69 -0.1,2.58 -0.25,4.3 -1.83,6.33 -3.06,3.96 -7.74,1.33 -12.7,1.33 -5.01,0 -9.7,2.62 -12.76,-1.33 -1.58,-2.03 -1.73,-3.75 -1.83,-6.33 -0.06,-1.87 0.11,-2.92 0.63,-4.69 0.35,-1.09 0.61,-1.72 1.14,-2.72 -0.89,-3.21 -1.23,-5.03 -1.68,-8.28 -0.35,-2.72 -0.45,-4.32 -0.49,-7.03 -1.93,-0.44 -3.01,-1.13 -4.26,-2.62 -0.93,-1.13 -1.24,-1.97 -1.68,-3.31 -0.34,-1.08 -0.19,-1.72 -0.54,-2.82 -0.25,-0.63 -0.21,-1.18 -0.75,-1.62 -0.39,-0.39 -0.79,-0.34 -1.3,-0.57 -2.36,-1 -3.89,-1.23 -5.92,-2.78 -1.93,-1.45 -2.92,-2.54 -4.06,-4.61 -1.32,-2.36 -2.07,-3.97 -1.87,-6.66 0.14,-1.54 0.19,-1.88 0.59,-3.37 0.23,-0.79 0.69,-1.67 1.05,-2.38 0.42,-0.79 0.83,-1.17 1.48,-1.82 0.69,-0.69 1.18,-1.05 2.03,-1.48l0 7.65c0,2.85 0.54,4.65 2.21,6.94 1.53,2.11 2.99,2.96 5.4,4.1 2.31,1.07 3.85,1.42 6.47,1.48 -0.2,1.77 -0.1,2.86 0.35,4.59 0.49,1.77 0.65,3.06 2.03,4.24 1.38,1.2 2.63,1.24 4.44,1.3 1.73,0.1 2.78,-0.1 4.35,-0.85 1.23,-0.59 2.62,-0.75 2.88,-2.07 0.08,-0.59 0,-0.94 -0.21,-1.48 -0.35,-1.18 -1.32,-1.45 -1.97,-2.48 -0.54,-0.88 -0.88,-1.42 -1.18,-2.42 -0.31,-0.94 -0.55,-1.53 -0.39,-2.47 0.09,-0.75 -0.06,-1.76 0.69,-1.76l10.22 -0.01c0.73,0 0.6,1.02 0.72,1.76 0.17,0.93 -0.13,1.52 -0.42,2.47 -0.3,1 -0.62,1.53 -1.18,2.42 -0.65,1.03 -1.64,1.3 -1.99,2.48 -0.17,0.53 -0.29,0.88 -0.2,1.48 0.26,1.32 1.64,1.47 2.88,2.07 1.58,0.75 2.61,0.94 4.34,0.85 1.83,-0.06 3.07,-0.1 4.46,-1.3 1.38,-1.18 1.55,-2.47 2.03,-4.25 0.49,-1.73 0.54,-2.81 0.39,-4.59 2.57,-0.05 4.1,-0.41 6.44,-1.48 2.41,-1.14 3.83,-1.98 5.37,-4.1 1.68,-2.28 2.23,-4.09 2.23,-6.93l0 -7.66c0.84,0.44 1.32,0.79 2.03,1.48 0.66,0.65 1.08,1.03 1.48,1.82 0.35,0.72 0.83,1.59 1.05,2.38 0.43,1.5 0.46,1.83 0.59,3.37 0.2,2.7 -0.55,4.31 -1.86,6.67z"/>
     </g>
     <path class="fil0" d="M259.82 308.72c0.08,3.51 -0.24,7.06 -0.93,10.49 -2.68,-0.73 -5.24,-0.7 -7.99,-0.73 -2.69,-0.01 -5.36,0.09 -7.99,0.68 -0.8,-3.95 -0.98,-7.86 -0.93,-11.91l3.61 4.3c0.34,-0.69 1.88,-4.55 2.72,-4.81l0.19 -0.04c1.02,0.55 1.29,0.49 2.42,0.49 1.16,0 1.44,0 2.53,-0.53 0.94,0.39 1.52,2.27 1.92,3.08 0.31,0.66 0.61,1.32 0.81,1.83l3.64 -4.33 0 1.48z"/>
     <path class="fil2" d="M380.03 255.93c-6.2,1.17 -9.81,1.51 -16.14,1.49 -10.76,-0.03 -16.46,-5.16 -27.17,-4.48 -6.07,0.37 -9.78,0.33 -15.26,2.91 -6.18,2.92 -10.28,5.44 -13.08,11.7 -2.56,5.78 -2.73,10.3 -0.51,16.23 2.17,5.68 6.13,8.74 10.67,11.52 6.72,4.14 11.44,3.99 19.32,4.59 11.1,0.87 17.18,-1.46 27.88,-3.86 9.17,-2.07 14.08,-4.3 23.09,-6.92 9.71,-2.82 15.22,-4.36 24.99,-6.96 3.9,-3.83 6.3,-5.85 10.73,-9.05 4.62,-3.34 7.41,-5.03 12.51,-7.58l-0.42 -3.14c-9.55,1.89 -14.9,3.14 -24.3,5.72 -11.68,3.24 -17.96,6.17 -29.58,9.62 -10.35,3.05 -16.1,5.31 -26.71,7.19 -5.99,1.09 -9.37,2.33 -15.46,1.99 -5.29,-0.29 -9.29,0.54 -13.33,-2.92 -2.04,-1.73 -3.54,-2.92 -4.02,-5.53 -0.34,-1.79 -0.48,-3.14 0.55,-4.64 0.93,-1.32 2.07,-1.97 3.71,-2.03 2.07,-0.04 3.75,1 4.44,2.98 0.55,1.77 0.1,3.39 -1.32,4.62 2.22,0.21 3.55,0.17 5.74,-0.2 2.62,-0.41 4.44,-0.27 6.39,-2.03 1.81,-1.6 2.65,-3.13 2.68,-5.54 0.03,-2.83 -1.18,-4.73 -3.48,-6.34 -1.52,-1.03 -2.62,-1.38 -4.46,-1.44 2.68,-0.88 4.68,-0.72 7.2,0.56 1.31,0.68 2.05,1.22 2.96,2.41 1.44,1.89 1.89,3.55 1.57,5.9 4.69,-0.39 7.41,-1.07 11.73,-2.89 4.41,-1.89 6.52,-3.72 10.39,-6.54 3.58,-2.64 5.51,-4.28 8.72,-7.36z"/>
     <path class="fil2" d="M250.97 323.12c-3.16,0 -5.48,0 -7.81,2.13 -0.63,0.53 -1.05,0.88 -1.44,1.62 -0.83,1.53 -0.69,2.9 0.03,4.51 1.51,3.25 5.58,1.08 9.22,1.08 3.61,0 7.67,2.17 9.21,-1.08 0.7,-1.61 0.83,-2.98 0,-4.51 -0.41,-0.73 -0.8,-1.09 -1.41,-1.62 -2.37,-2.13 -4.68,-2.13 -7.8,-2.13z"/>
     <path class="fil2" d="M419.76 341.15c-1.9,1.99 -3.54,2.95 -4.33,5.59 -0.55,1.77 -0.25,4.75 -0.25,4.75l0.35 3.64c0.16,1.59 0.08,2.52 -0.38,4.06 -0.36,1.34 -0.57,2.22 -1.55,3.27l-6.98 7.37c0.87,-1.51 1.21,-2.48 1.46,-4.23 0.26,-1.72 0.46,-2.85 -0.19,-4.48l-2.3 -5.78c-0.4,-0.94 -0.1,-1.64 0.06,-2.66 0.11,-0.83 0.19,-1.13 0.5,-2.11l-3.9 4.17c-0.96,1.06 -1.48,1.73 -1.93,3.1 -0.47,1.51 -0.66,2.54 -0.17,4.03l2.42 7.12c0.42,1.21 0.2,2.05 -0.11,3.34 -0.45,1.75 -1.13,2.66 -2.38,3.99l-6.96 7.36c0.89,-1.48 1.2,-2.47 1.45,-4.19 0.27,-1.73 0.47,-2.86 -0.21,-4.5l-2.27 -5.52c-0.4,-0.94 -0.09,-1.61 0.05,-2.62 0.13,-0.85 0.2,-1.14 0.53,-2.12l-3.92 4.05c-0.97,1.05 -1.48,1.72 -1.92,3.1 -0.49,1.48 -0.66,2.53 -0.17,4.03l2.42 7.14c0.41,1.22 0.17,2.07 -0.12,3.31 -0.45,1.77 -1.12,2.72 -2.38,4l-6.96 7.41c0.65,-1.18 0.92,-1.93 1.14,-3.21 0.27,-1.64 0.27,-2.67 -0.18,-4.3l-1.69 -6.09c-1.4,1.73 -2.28,2.66 -3.94,4.16 -2.18,1.94 -3.54,2.91 -6.06,4.37 -0.27,2.35 -0.76,3.74 -2.03,5.71 -1.57,2.51 -2.99,3.66 -5.55,5.05 -3.18,1.76 -5.55,2.22 -9.15,1.83 0.93,-1.79 1.18,-3.02 1.02,-4.99 -0.16,-1.79 -0.35,-2.97 -1.54,-4.26 -1.01,-1.14 -1.93,-1.64 -3.46,-1.89 0.31,0.8 0.46,1.27 0.76,2.07 0.36,1 0.55,1.58 0.92,2.58 -1.61,2.38 -2.7,3.67 -4.81,5.6 -2.1,1.93 -3.41,2.86 -5.89,4.2 -1.86,-0.06 -2.96,-0.1 -4.84,-0.17 -1.44,-0.09 -2.28,-0.42 -3.7,-0.17 -1.69,0.24 -2.58,0.73 -4.06,1.62 -1.93,1.24 -2.93,2.23 -4.14,4.21 -0.75,-2.44 -0.94,-3.91 -0.85,-6.41 0.2,-4.27 0.89,-7.15 3.71,-10.36 1.67,-1.93 2.96,-2.86 5.34,-3.9 -4.06,0.53 -6.52,1.93 -9.24,4.99 -1.94,2.28 -2.72,3.96 -3.31,6.88 -2.18,0.6 -3.41,1.09 -5.34,2.22 -2.53,1.41 -3.87,2.47 -5.74,4.6 -1.33,-2.33 -1.6,-4.2 -0.93,-6.83 0.43,-1.84 1,-2.96 2.38,-4.26 0.87,-0.85 1.47,-1.24 2.61,-1.68 0.99,-2.18 1.72,-3.35 3.31,-5.2 2.57,-2.92 4.54,-4.28 8.16,-5.72 -2.62,-0.29 -4.26,-0.1 -6.68,0.93 -2.36,1.03 -3.51,2.14 -5.18,4.06 -1.54,1.86 -2.22,3.11 -2.92,5.39 -2.28,0.64 -3.57,1.2 -5.58,2.41 -2.03,1.21 -3.11,2.04 -4.79,3.72 -1,-1.58 -1.24,-2.76 -1.1,-4.64 0.16,-2.18 0.94,-3.37 2.32,-5 1.44,-1.68 2.62,-2.47 4.7,-3.16 0.49,-3.51 1.34,-5.6 3.51,-8.46 2.13,-2.76 3.82,-4.18 7.02,-5.57 2.48,-1.08 4.06,-1.38 6.75,-1.48 4.03,-0.16 6.16,1.43 10.06,2.35 3.47,0.8 5.33,2.17 8.89,2.09 3.93,-0.12 6.43,-0.81 9.61,-3.17 2.97,-2.17 4.4,-4.09 5.63,-7.54 1.51,-0.59 2.33,-1.1 3.61,-2.03 1.48,-1.16 2.24,-1.97 3.31,-3.52 -2.59,1.2 -4.19,1.73 -7.02,2.21 -3.14,0.55 -5.02,0.57 -8.18,0.18 0.68,-0.85 1.06,-1.34 1.69,-2.23 3.37,-4.68 3.01,-8.59 6.1,-13.47 2.65,-4.16 4.16,-6.66 7.98,-9.78 5.52,-4.56 10.08,-5.15 17,-7.03 4.47,-1.23 7.26,-0.73 11.67,-2.21 2.28,-0.8 4.03,-0.68 5.71,-2.42 1.18,-1.2 1.82,-2.13 2.04,-3.81 0.17,-1.28 0.07,-2.07 -0.42,-3.27 2.91,-1.64 4.72,-2.27 7.98,-2.86 3.99,-0.69 6.46,-0.62 10.39,0.4 2.4,0.59 3.89,0.92 5.91,2.32 2.06,1.43 3.27,2.47 4.26,4.79 1.24,2.84 1.24,5.12 0,7.98 -3.01,1.77 -4.6,3.06 -7.02,5.58z"/>
     <g>
      <path class="fil2" d="M516.51 369.08c-0.29,-2.01 -0.53,-3.26 -1.77,-4.86 -1.27,-1.58 -3.01,-2.27 -4.38,-2.91 -1.31,-0.59 -4,-0.97 -5.44,-0.97l-1.68 0c-1.55,0 -2.47,0.07 -3.96,-0.37 -1.45,-0.4 -2.41,-0.59 -3.45,-1.69l-5.06 -5.31c0.71,0.31 1.22,0.38 2.02,0.53 0.71,0.14 1.1,0.18 1.79,0.18l7.24 0.01c1.59,0 2.5,0.2 4.05,0.55 1.14,0.3 1.75,0.49 2.85,0.93l-3.88 -6.16c-0.92,-1.44 -1.45,-2.36 -2.85,-3.31 -1.41,-0.99 -2.44,-1.48 -4.2,-1.48l-9.05 0c-1.48,0 -2.46,0.1 -3.78,-0.59 -1.27,-0.65 -1.7,-1.44 -2.61,-2.53l-3.95 -4.99c0.88,0.49 1.46,0.63 2.44,0.83 0.83,0.19 1.29,0.29 2.12,0.29l7.94 0c1.93,0 3.04,0.29 4.87,0.84 1.36,0.44 2.12,0.73 3.38,1.44l-7.36 -9.64c-0.78,-0.99 -1.27,-1.54 -2.35,-2.17 -1.24,-0.69 -2.1,-0.94 -3.52,-0.94l-7.01 -0.01c-1.37,0 -2.21,-0.05 -3.45,-0.59 -1.27,-0.59 -2.04,-1.05 -2.72,-2.22l-5.84 -9.81c4.74,-0.03 7.55,-0.58 11.96,-2.41 5.11,-2.11 8.3,-3.76 11.52,-8.26 3.24,-4.55 4.28,-8.15 4.07,-13.73 -0.2,-4.69 -1.14,-7.51 -3.69,-11.48 -2.41,-3.72 -4.56,-5.36 -8.29,-7.75 -3.72,-2.45 -6.42,-2.68 -10.53,-4.46 -4.66,-2.02 -9.53,-0.77 -11.93,-5.27 -1.12,-2.1 -1.93,-3.72 -1.21,-5.99 0.7,-2.13 1.93,-3.38 4.03,-4.07 -4.99,-1.82 -8.76,-1.72 -13.64,0.41 -3.38,1.47 -5.58,2.68 -7.44,5.88 -2.02,3.51 -2.34,6.48 -1.12,10.34 -4.77,2.42 -7.33,4.03 -11.63,7.22 -5.94,4.4 -9.04,7.31 -13.8,12.95 4.59,-1.16 7.24,-1.62 11.94,-2.22 4.22,-0.54 6.65,-0.69 10.92,-0.73 -0.2,-2.42 0.13,-3.96 1.28,-6.1 2.09,-3.89 5.26,-5.83 9.67,-5.94 -1.93,0.78 -2.96,1.61 -4.17,3.3 -1.59,2.24 -2.68,4.34 -1.61,6.87 0.93,2.26 2.56,3.58 4.99,3.68 1.32,0.08 2.2,-0.14 3.34,-0.89 -0.35,-1.48 -0.33,-2.41 0.04,-3.89 1.02,-3.95 4.43,-6.41 8.5,-6.1 -1.27,0.62 -1.9,1.14 -2.82,2.21 -2.76,3.24 -3.09,7.48 -0.56,10.91 2.11,2.86 5,3.99 8.5,3.32 -0.54,-0.92 -0.72,-1.55 -0.75,-2.59 -0.01,-3.11 3.17,-4.99 6.32,-4.99 3.36,0.04 6.18,2.47 6.33,5.83 0.32,6.74 -5.47,6.25 -10.21,6.86 -3.07,0.42 -4.8,-0.63 -7.84,-1.22 -4.41,-0.85 -6.79,-1.79 -11.22,-2.58 -9.7,-1.81 -15.33,-2.72 -25.18,-2.22 -7.71,0.39 -11.98,1.69 -19.56,3.14 -12.26,2.35 -18.86,5.11 -31.09,7.58 -13.64,2.72 -21.4,5.21 -35.29,5.35 -14.88,0.2 -23.51,-0.99 -37.77,-5.13 1.53,2.71 2.12,4.44 2.62,7.55 0.27,1.73 0.24,2.72 0.24,4.46 -1.44,-3.52 -2.51,-5.4 -4.64,-8.51 -2.82,-4.2 -5.94,-5.47 -8.51,-9.84 -0.59,-1.03 -1.13,-1.58 -1.48,-2.76 -0.35,-1.24 -0.45,-2.03 -0.16,-3.31 0.21,-1.01 0.48,-1.59 1.1,-2.41 0,0.93 0.14,1.48 0.54,2.26 0.31,0.55 0.51,0.85 0.94,1.24l8.89 8.89c1,-6.12 0.8,-9.93 -0.88,-15.91 -1.29,-4.43 -2.41,-6.91 -5.05,-10.71 1.47,-4 1.93,-6.49 2.04,-10.73 0.08,-3.27 -0.11,-5.13 -0.87,-8.33 -1.95,1.17 -3.02,1.88 -4.85,3.24 -1.22,0.9 -2.16,1.24 -3.09,2.44 -1.08,1.41 -1.47,2.49 -1.73,4.26 -0.2,1.62 -0.1,2.62 0.4,4.17 -1.82,-1.12 -2.77,-2.14 -3.71,-4.07 -0.88,-1.83 -1.48,-3.17 -0.93,-5.14 0.42,-1.45 1.07,-2.23 2.22,-3.23 1.82,-1.54 3.61,-0.94 5.88,-1.71 2.13,-0.73 3.31,-1.17 5.39,-2.03 -0.1,-0.41 -0.2,-0.65 -0.35,-1.01 -0.2,-0.38 -0.34,-0.61 -0.58,-0.92 -3.07,-0.78 -4.95,-0.95 -8.14,-0.66 -1.75,0.14 -2.73,0.32 -4.41,0.79 -2.28,-2.58 -4.13,-3.79 -7.41,-4.82 -2.03,-0.62 -3.27,-0.79 -5.34,-0.72 -2.68,-2.34 -4.57,-3.38 -7.96,-4.31 -3.09,-0.84 -4.99,-0.48 -8.15,-0.48 -3.21,0 -5.1,-0.35 -8.19,0.48 -3.38,0.93 -5.31,1.97 -7.93,4.31 -2.12,-0.07 -3.36,0.1 -5.39,0.72 -3.27,1.03 -5.14,2.24 -7.38,4.82 -1.72,-0.47 -2.71,-0.65 -4.43,-0.79 -3.2,-0.28 -5.07,-0.11 -8.16,0.66 -0.2,0.31 -0.29,0.5 -0.49,0.87 -0.2,0.38 -0.29,0.64 -0.43,1.06 2.07,0.86 3.25,1.3 5.38,2.03 2.27,0.76 4.06,0.17 5.88,1.7 1.2,1 1.82,1.77 2.22,3.23 0.55,1.97 -0.05,3.31 -0.94,5.15 -0.94,1.93 -1.84,2.96 -3.7,4.07 0.52,-1.55 0.61,-2.55 0.39,-4.17 -0.24,-1.76 -0.65,-2.85 -1.73,-4.26 -0.93,-1.2 -1.84,-1.53 -3.06,-2.43 -1.83,-1.37 -2.92,-2.1 -4.85,-3.33 -0.73,3.2 -0.93,5.11 -0.89,8.42 0.1,4.24 0.6,6.73 2.09,10.72 -2.68,3.81 -3.82,6.29 -5.1,10.71 -1.68,5.98 -1.88,9.8 -0.83,15.92l8.85 -8.89c0.43,-0.4 0.63,-0.69 0.93,-1.24 0.39,-0.78 0.55,-1.32 0.55,-2.26 0.64,0.82 0.89,1.39 1.12,2.41 0.27,1.28 0.17,2.07 -0.17,3.31 -0.37,1.18 -0.87,1.74 -1.5,2.77 -2.56,4.37 -5.68,5.63 -8.5,9.84 -2.13,3.11 -3.17,5.01 -4.65,8.51 -0.55,-1.24 -0.72,-2.03 -0.75,-3.37 0,-1.22 0.16,-1.97 0.62,-3.11 -4.72,-2.76 -7.35,-4.47 -11.69,-7.76 -4.14,-3.16 -6.78,-4.77 -10.18,-8.7 -4.06,-4.65 -8.81,-7.41 -8.14,-13.51 0.35,-3.16 2.21,-4.46 3.39,-7.38 1.48,-3.69 3.46,-5.67 3.27,-9.63 -0.18,-4.21 -1.49,-6.98 -4.61,-9.8 0.23,-2.51 -0.1,-4.1 -1.32,-6.29 -1.64,-3.03 -3.67,-4.58 -7.03,-5.37 1.14,1.92 1.46,3.32 1.31,5.54 -0.11,1.99 -0.56,3.17 -1.65,4.82 1.15,1.57 1.53,2.85 1.48,4.79 -0.1,2.33 -0.85,3.86 -2.62,5.37 0.55,-3.1 0.2,-5.17 -1.28,-7.95 -1.54,-2.83 -3.11,-4.3 -6.07,-5.55 -0.89,-3.95 -4.12,-6.51 -8.16,-6.47 -2.42,0.03 -4,0.69 -5.73,2.41 2.16,0.27 3.57,1.13 4.78,2.95 0.69,1.02 1,1.75 1.14,2.97 -0.84,0.53 -1.24,0.92 -1.87,1.67 -0.75,0.94 -1.08,1.6 -1.47,2.77 3.15,0.14 5.17,1.14 7.19,3.51 2.14,2.46 2.82,4.72 2.44,7.93 -0.65,-1.9 -1.24,-2.93 -2.58,-4.41 -3.31,-3.64 -7.28,-4.84 -12.04,-3.67 -1.9,-2.03 -3.89,-2.8 -6.65,-2.65 -2.9,0.2 -4.85,1.31 -6.47,3.72 1.87,0.1 3.01,0.45 4.59,1.48 1.24,0.76 1.83,1.35 2.66,2.54 -0.79,0.94 -1.18,1.54 -1.72,2.62 -1.14,2.38 -1.48,4.03 -1.3,6.68 0.2,2.89 0.71,4.79 2.58,7.01 2.03,2.35 3.95,3.86 7.05,3.69 1,-0.04 1.61,-0.24 2.59,-0.53 1.08,-0.34 1.64,-1.18 2.76,-1.07 2.77,0.32 3.72,4.04 0,5.33 -0.99,0.34 -1.58,-0.35 -2.59,-0.55 -1.27,-0.29 -1.9,-0.88 -3.18,-0.73 -1.69,0.14 -2.68,0.89 -3.75,2.21 -1.14,1.34 -1.54,2.47 -1.57,4.26 -1.25,0.35 -2.1,0.35 -3.34,0 -0.93,-0.29 -1.48,-0.63 -2.22,-1.31 -0.64,2.4 -0.28,4.26 1.14,6.32 1.44,2.02 3.07,2.93 5.52,3.1 1.59,3.31 3.37,5.05 6.68,6.63 1.61,0.8 2.62,1.33 4.4,1.28 2.22,-0.04 3.21,-1.28 5.2,-2.21 1.32,-0.6 1.87,-1.5 3.34,-1.64 1.55,-0.23 2.58,0.05 3.86,0.89 1.83,1.24 2.65,2.79 2.58,4.97 -0.06,2.84 -2.13,4.32 -4.7,5.53 -1.93,0.92 -3.35,1.07 -5.44,0.68l4.59 4.3c1.59,1.42 2.56,2.21 4.49,3.09 2.03,0.92 3.37,1.41 5.59,1.41l0.87 -0.01c2.2,0 3.45,-0.03 5.55,0.49 2.28,0.59 3.82,0.79 5.44,2.42l4.76 4.65c-1.2,-0.48 -1.95,-0.61 -3.23,-0.82 -1.04,-0.18 -1.64,-0.28 -2.68,-0.28l-1.13 0c-2.42,0 -3.81,-0.24 -6.19,-0.79 -1.82,-0.39 -2.8,-0.69 -4.54,-1.33l7.52 7.17c1.53,1.45 2.52,2.22 4.45,3.11 2.07,0.92 3.36,1.38 5.58,1.38l0.89 0c2.17,0 3.45,0 5.6,0.53 2.21,0.56 3.75,0.76 5.43,2.4l4.85 4.65c-1.18,-0.48 -1.93,-0.61 -3.21,-0.8 -1.04,-0.18 -1.64,-0.28 -2.66,-0.28l-1.5 0c-2.41,0 -3.81,-0.26 -6.17,-0.8 -1.83,-0.4 -2.82,-0.68 -4.56,-1.31l8.7 7.8c1.1,0.99 1.74,1.54 3.07,2.17 1.44,0.63 2.33,0.94 3.87,0.94l10.33 0c-8.75,4.88 -11.08,7.35 -18.74,11.3 -8.37,4.27 -12.8,10.01 -22.2,9.4 -3.62,-0.23 -5.48,-1.45 -9.03,-2.2 -2.33,-0.49 -3.61,-1.12 -5.94,-1.13 -3.11,0 -5.11,0.24 -7.75,1.88 -2.03,1.18 -3.05,2.21 -4.26,4.23 2.37,-0.82 3.95,-0.98 6.47,-0.55 2.76,0.47 4.37,1.24 6.48,3.13 -2.09,-0.44 -3.27,-0.6 -5.4,-0.55 -4.17,0.06 -6.89,0.41 -10.33,2.76 -3.36,2.27 -5.38,4.36 -6.32,8.3 -0.5,2.27 -0.5,3.68 0,5.94 -1.04,0.79 -1.58,1.33 -2.38,2.36 -1.33,1.64 -2.36,2.72 -2.42,4.85 -0.04,2.12 0.6,3.61 2.22,5.05 0.79,-2.33 1.94,-3.67 4.06,-4.85 1.44,-0.81 2.41,-1.08 4.11,-1.13 0.59,0.48 0.93,0.73 1.63,1.13 0.89,0.46 1.43,0.66 2.41,0.89l2.04 -2.37c-0.35,-3.9 0.45,-6.59 2.96,-9.64 2.96,-3.58 6.27,-5.03 10.92,-4.79 -4.31,1.17 -6.88,3.46 -8.51,7.57 -1.03,2.53 -1.18,4.2 -0.73,6.86 -1.93,0.99 -2.92,2.03 -3.87,3.96 -1.44,3.03 -1.24,5.82 0.71,8.6 1.23,-2.19 2.26,-3.31 4.24,-4.79 2.27,-1.74 3.85,-2.42 6.63,-2.98 1.44,0.42 2.27,0.59 3.76,0.73 2.21,0.27 3.51,0.21 5.69,-0.18 -0.9,-1.64 -1.2,-2.75 -1.31,-4.61 -0.2,-4.54 1.75,-8.34 5.94,-9.98 1.79,-0.69 2.95,-0.83 4.81,-0.57 -1.93,0.51 -3.02,1.16 -4.4,2.59 -2.18,2.13 -3.52,4.2 -2.97,7.22 0.39,2.27 1.34,3.71 3.31,4.99 1.29,0.8 2.19,1.1 3.71,1.14 -0.02,1.2 -0.1,1.83 -0.4,2.97 -0.29,1.38 -0.59,2.12 -1.28,3.36 2.96,-0.29 4.75,-1.04 7.02,-2.94 1.62,-1.31 2.4,-2.3 3.36,-4.13 1.54,-0.39 2.42,-0.86 3.69,-1.87 2.62,-2.14 4.14,-4.54 3.62,-7.85 -0.3,-2.09 -0.98,-3.34 -2.51,-4.75 -0.31,-2.88 2.07,-5.5 4.99,-5.54 3.09,0 5.44,3.11 4.99,6.18 -0.16,1.04 -0.4,1.64 -1.03,2.47l8.99 -0.09c1.38,-0.06 2.21,-0.25 3.45,-0.89 1.44,-0.69 2.23,-1.29 3.02,-2.65l3.61 -5.96c0.65,-1.08 1.14,-1.7 2.22,-2.44 0.99,-0.72 1.62,-1.27 2.86,-1.27l6.48 0.11c-0.75,0.43 -1.14,0.73 -1.76,1.32 -0.51,0.55 -0.83,0.88 -1.21,1.57l-2.92 4.91c-0.91,1.49 -1.68,2.22 -2.96,3.43 -0.92,0.88 -1.49,1.32 -2.52,2.02l10.73 -0.14c1.44,-0.03 2.27,-0.23 3.51,-0.84 1.38,-0.73 2.19,-1.34 3.02,-2.68l7.61 -11.85c-1.65,-1.42 -7.02,-4.04 -8.59,-8.48 -0.71,-1.88 -0.94,-3.06 -0.85,-5.09 0.06,-1.67 0.35,-2.65 0.94,-4.24 0.54,-1.58 1.34,-2.24 1.83,-3.82 0.39,-1.23 0.59,-1.9 0.63,-3.18 0,-1 -0.04,-1.59 -0.29,-2.58l3.93 2.13c0.92,0.52 1.41,0.98 1.96,1.93 0.54,0.95 0.66,1.67 0.59,2.76 -0.05,1.14 -0.55,1.68 -0.88,2.76 -0.62,1.74 -1.4,2.62 -1.59,4.44 -0.18,1.87 -0.14,3.06 0.65,4.79 0.94,2.22 2.46,2.86 4.34,4.34 2.39,1.93 3.96,2.87 6.78,4.05l0 -16.97 6.27 -0.01 0 15.69c0,1.38 0.16,2.28 0.9,3.5 0.59,1.05 1.13,1.69 2.21,2.24l5 2.4c1.77,0.86 3.05,0.86 4.99,0.71 1.58,-0.1 2.47,-0.28 3.9,-0.87l9.01 -3.9c-1.14,0.14 -1.83,0.08 -2.97,-0.2 -1.24,-0.37 -1.79,-0.93 -2.93,-1.54l-11.66 -6.23c1.39,-1.13 2.03,-2.35 2.56,-4.18 0.51,-1.58 0.51,-2.54 0.41,-4.18 -0.16,-1.55 -0.61,-2.34 -0.94,-3.87 -0.23,-0.93 -0.54,-1.43 -0.54,-2.42 -0.05,-0.93 0,-1.52 0.34,-2.37 0.33,-0.73 0.49,-1.23 1.18,-1.68l4.99 -3.31c-0.14,0.84 -0.2,1.33 -0.2,2.22 0,1.08 0.16,1.68 0.37,2.76 0.28,1.34 0.77,1.99 1.11,3.31 0.35,1.42 0.55,2.22 0.55,3.71 0.05,2.81 -0.42,4.49 -1.66,7l12.04 6.66c1.2,0.65 1.94,0.99 3.32,1.13 1.32,0.16 2.11,0.04 3.36,-0.38l11.08 -4.36c-1.17,0.14 -1.89,0.13 -2.97,-0.17 -1.29,-0.33 -1.83,-0.92 -2.96,-1.51l-11.46 -6.31c-0.71,-0.35 -1.14,-0.46 -1.84,-0.72 -0.79,-0.31 -1.23,-0.47 -2.07,-0.73 0.55,-0.82 0.65,-1.34 0.94,-2.2 0.44,-1.3 0.69,-2.02 0.93,-3.36 0.55,-3.07 0.2,-4.91 -0.4,-7.95 -0.54,-3.11 -2.02,-4.55 -2.52,-7.71 -0.29,-0.9 -0.4,-1.44 -0.34,-2.38 0.01,-0.93 -0.16,-1.7 0.54,-2.27l6.04 -5.08c-0.15,0.92 -0.21,1.47 -0.15,2.41 0,0.73 0.01,1.13 0.15,1.85 0.3,1.45 0.93,2.16 1.48,3.53 0.6,1.44 0.93,2.27 1.48,3.75 0.99,-0.99 1.52,-1.58 2.4,-2.66 1.51,-1.93 2.4,-3.07 3.13,-5.35 0.65,-1.93 0.85,-3.06 0.76,-5.09 -0.16,-2.03 -0.31,-3.36 -1.44,-5.03l-2.99 -4.46c-0.72,-1.1 -0.97,-1.89 -1.07,-3.17 -0.16,-1.73 0.35,-2.76 1.07,-4.34l2.99 -6.88c-0.4,1.24 -0.51,2.03 -0.35,3.36 0.13,0.94 0.25,1.53 0.69,2.38l2.38 4.46 3.06 4.04 3.01 6.96c0.44,2.52 0.44,4.06 0,6.58 -0.61,3.11 -1.64,4.69 -3.27,7.41 -2.66,4.5 -7.45,8.3 -9.09,9.88 0,0 0.17,1.32 0.16,2.17 -0.06,2.09 -0.45,3.25 -1.28,5.19l15.51 8.29c1.24,0.64 1.98,1.04 3.34,1.17 1.31,0.11 2.21,0.23 3.39,-0.42l7.57 -4.05c-1.1,0.4 -1.95,0.31 -2.98,-0.2 -1.17,-0.53 -1.58,-1.38 -2.03,-2.58 -1.08,-2.9 1.13,-5.79 3.68,-7 10.36,-4.98 21.18,-8.74 34.4,-14.92 14.86,-6.98 22.27,-13.05 37.55,-19.04 8.24,-3.22 12.67,-7.16 21.55,-7.16 5.51,0 9.19,-0.12 13.87,2.82 2.27,1.42 3.58,2.42 5.06,4.65 1.32,1.91 1.7,3.31 2.22,5.58 1.28,5.44 -2.44,8.66 -1.86,14.23 0.69,6.23 1.89,10.16 5.94,14.97 3.37,3.99 6.46,5.09 11.05,7.58 3.08,1.64 5.74,1.2 8.19,3.68 1.16,1.18 1.95,1.92 2.4,3.5 0.37,1.34 0.37,2.21 0,3.54 2.57,0.07 4.07,-0.18 6.47,-1.13 3.61,-1.37 5.6,-2.91 7.76,-6.09l9.97 -0.01c0.98,1.67 1.27,2.85 1.31,4.77 0.03,2.18 0,3.79 -1.48,5.38 -1.53,1.64 -3.21,1.52 -5.41,1.88 -3.07,0.43 -4.85,-0.91 -7.97,-0.75 -3.48,0.13 -5.75,-0.05 -8.82,1.64 -3.44,1.92 -5.13,4.05 -6.49,7.78 -0.84,2.44 -1.03,4.09 -0.73,6.65 -1.41,0.9 -2.13,1.68 -2.96,3.16 -1.6,2.89 -1.6,5.6 0,8.5 1.58,-1.82 2.62,-2.76 4.64,-4.04 1.62,-1.1 2.62,-1.58 4.43,-2.23 0.23,-5.34 2.87,-9.18 7.76,-11.29 2.86,-1.24 4.92,-1.41 7.97,-0.75 -3.57,0.76 -5.67,1.96 -8.13,4.63 -3.17,3.46 -4.34,6.62 -4.07,11.26 -1.01,1.41 -1.34,2.55 -1.24,4.26 0.12,1.82 0.66,3.02 1.97,4.26 2.52,-4.11 5.28,-6.17 9.99,-7.37 2.39,-0.63 3.85,-0.68 6.31,-0.38 -1.07,-3.99 -0.4,-7.14 2.2,-10.34 2.73,-3.37 5.94,-4.7 10.22,-4.26 -2.54,0.68 -4.02,1.72 -5.61,3.85 -1.45,2.03 -2.24,3.61 -2.02,6.13 0.24,2.78 1.35,4.61 3.7,6.09 -0.1,1.38 0.03,2.21 0.54,3.5 0.58,1.39 1.14,2.14 2.28,3.01 0.39,-1.92 0.99,-3.06 2.36,-4.5 0.98,-0.99 1.68,-1.44 2.93,-2.02 2.09,-0.94 3.54,-0.29 5.76,-0.75 3.71,-0.69 6.43,-0.25 9.23,-2.78 2.07,-1.83 3.16,-3.41 3.55,-6.17 0.52,-3.55 -0.51,-6.26 -3.18,-8.6 0.56,-3.66 0.69,-5.75 0.56,-9.44 -0.14,-3.85 -0.45,-6 -1.37,-9.77l1.17 0c1.17,0 1.44,0.14 2.99,0.54 1.13,0.25 2.45,1.48 3.24,3.01 0.56,-2.1 0.63,-3.41 0.29,-5.55l0 0zm-239.04 -99.18c-0.11,1.64 -0.65,2.92 -1.89,4.3 -1.32,1.47 -2.42,2.33 -4.2,2.33l-4.4 0c1.14,1.14 2.07,2.02 2.07,3.82 0,2.33 -1.87,4.2 -4.2,4.2 -2.33,0 -4.2,-1.88 -4.2,-4.2 0,-1.2 0.49,-2.25 1.28,-3.01l0.79 -0.8 -4.79 0c-1.08,0 -1.73,0.61 -2.56,1.45l0 -1.21c0,-0.71 -0.06,-1.36 0,-1.95 0.1,-1.24 1.24,-2.65 2.56,-2.65l14.04 0c1.93,0 4.1,-0.89 5.5,-2.27l0 0zm-15.17 -16.98c0.76,0 1.21,0.19 1.86,0.55 0.66,0.37 0.99,0.69 1.48,1.31l4.55 5.9c0.34,0.42 0.4,0.76 0.73,1.12 0.51,0.43 0.87,0.62 1.5,0.73l-3.69 0c-1.12,0 -1.79,-0.19 -2.79,-0.73 -0.93,-0.56 -1.33,-1.14 -2.02,-2.03l-3.68 -4.82c-0.31,-0.45 -0.48,-0.72 -0.87,-1.11 -0.49,-0.42 -0.8,-0.65 -1.35,-0.92l4.28 0zm-14.84 -2.21c1.07,0 1.73,0.34 2.66,0.92 0.79,0.5 1.22,0.88 1.77,1.66l5.38 7.77c0.35,0.48 0.55,0.72 0.94,1.11 0.65,0.62 1.09,0.92 1.88,1.29l-4.93 -0.01c-1.14,0 -1.9,-0.21 -2.82,-0.92 -0.72,-0.55 -0.92,-1.08 -1.38,-1.84l-4.46 -6.85c-0.44,-0.69 -0.69,-1.08 -1.3,-1.65 -0.83,-0.79 -1.43,-1.14 -2.48,-1.48l4.72 0zm-12.26 2.21c0.75,0 1.18,0.19 1.82,0.55 0.69,0.37 1.04,0.69 1.49,1.31l4.59 5.9c0.3,0.42 0.35,0.76 0.73,1.12 0.45,0.43 0.85,0.62 1.47,0.73l-3.68 0c-1.14,0 -1.83,-0.19 -2.76,-0.73 -1,-0.56 -1.39,-1.14 -2.06,-2.03l-3.64 -4.82c-0.34,-0.45 -0.55,-0.72 -0.94,-1.11 -0.47,-0.42 -0.79,-0.65 -1.34,-0.92l4.32 0zm-5.26 19.25l14 0c0.84,0 1.33,0.39 1.98,1.17 0.86,1.01 0.6,2.21 0.6,3.43l-0.13 1.07c-0.72,-0.7 -1.31,-1.31 -2.46,-1.31l-4.79 0c1.2,1.14 2.09,2.02 2.09,3.82 0,2.33 -1.89,4.2 -4.19,4.2 -2.3,0 -4.17,-1.88 -4.17,-4.2 0,-1.2 0.43,-2.25 1.24,-3.01l0.83 -0.8 -4.4 0c-1.83,0 -2.86,-0.86 -4.2,-2.33 -1.24,-1.38 -1.83,-2.66 -1.89,-4.3 1.34,1.38 3.53,2.27 5.48,2.27l0 0zm-5.82 76.58l-1.68 4.79c-0.49,1.44 -0.55,2.27 -0.8,3.75 -0.46,3.05 -0.54,4.81 -0.31,7.87 -0.92,-0.75 -1.41,-1.24 -2.2,-2.13 -0.84,-0.93 -1.18,-1.54 -1.87,-2.54 -1.54,-2.35 -2.19,-3.89 -3.11,-6.44l-0.2 -0.79c-2.73,-0.88 -6.98,-1.14 -9.29,-4.07 -2.14,-2.68 -2.34,-4.91 -2.82,-8.29 -0.45,-2.77 -0.45,-4.45 0,-7.27l2.62 -7.75 2.65 -4.46 2.09 -4.96c0.4,-0.96 0.49,-1.62 0.6,-2.65 0.14,-1.43 0.07,-2.33 -0.3,-3.71l3.67 5.58c0.88,1.4 0.93,2.46 0.93,4.06 0.03,1.73 -0.1,2.82 -0.93,4.3l-3.67 6.96c-1.04,1.98 -1.14,3.37 -1.24,5.6 -0.1,2.21 -0.34,3.66 0.62,5.63 1.46,3.02 3.77,4.59 7.15,4.79 0.04,-1.41 0.1,-2.22 0.36,-3.61 0.28,-1.58 0.82,-2.38 1.07,-3.96 0.1,-0.72 0.14,-1.14 0.2,-1.82 0,-0.94 -0.06,-1.48 -0.2,-2.43l6.07 8.71c0.65,0.86 0.69,1.58 0.75,2.62 0.1,0.88 0.1,1.41 -0.16,2.21l0 0zm60.28 -60.5c-1.15,2.07 -2.16,3.16 -4.07,4.59 -2.03,1.55 -3.56,1.77 -5.9,2.77 -0.52,0.25 -0.87,0.21 -1.31,0.61 -0.49,0.43 -0.49,0.97 -0.75,1.62 -0.35,1.04 -0.2,1.73 -0.55,2.78 -0.44,1.38 -0.73,2.21 -1.65,3.36 -1.27,1.47 -2.35,2.17 -4.27,2.62 -0.03,2.72 -0.16,4.29 -0.49,6.96 -0.4,3.32 -0.8,5.15 -1.67,8.36 0.53,1 0.76,1.61 1.12,2.72 0.55,1.73 0.72,2.82 0.65,4.65 -0.1,2.56 -0.25,4.34 -1.83,6.37 -3.06,3.9 -7.74,1.34 -12.7,1.34 -5.01,0 -9.7,2.56 -12.76,-1.34 -1.58,-2.03 -1.73,-3.81 -1.83,-6.37 -0.06,-1.83 0.11,-2.92 0.63,-4.65 0.35,-1.12 0.61,-1.72 1.14,-2.72 -0.89,-3.21 -1.23,-5.03 -1.68,-8.36 -0.35,-2.68 -0.45,-4.24 -0.49,-6.96 -1.93,-0.45 -3.01,-1.14 -4.26,-2.62 -0.93,-1.14 -1.24,-1.97 -1.68,-3.36 -0.34,-1.05 -0.19,-1.74 -0.54,-2.78 -0.25,-0.65 -0.21,-1.18 -0.75,-1.62 -0.39,-0.4 -0.79,-0.35 -1.3,-0.61 -2.36,-0.99 -3.89,-1.22 -5.92,-2.77 -1.93,-1.44 -2.92,-2.52 -4.06,-4.59 -1.32,-2.36 -2.07,-4 -1.87,-6.66 0.14,-1.54 0.19,-1.9 0.59,-3.38 0.23,-0.76 0.69,-1.65 1.05,-2.35 0.42,-0.83 0.83,-1.2 1.48,-1.85 0.69,-0.69 1.18,-1.01 2.03,-1.49l0 7.68c0,2.82 0.54,4.65 2.21,6.94 1.53,2.11 2.99,2.96 5.4,4.09 2.31,1.09 3.85,1.44 6.47,1.47 -0.2,1.8 -0.1,2.89 0.35,4.62 0.49,1.77 0.65,3.06 2.03,4.24 1.38,1.18 2.63,1.24 4.44,1.29 1.73,0.11 2.78,-0.14 4.35,-0.83 1.23,-0.6 2.62,-0.75 2.88,-2.13 0.08,-0.54 0,-0.89 -0.21,-1.47 -0.35,-1.15 -1.32,-1.41 -1.97,-2.44 -0.54,-0.88 -0.88,-1.42 -1.18,-2.45 -0.31,-0.92 -0.55,-1.51 -0.39,-2.46 0.09,-0.73 -0.06,-1.75 0.69,-1.75l10.22 0c0.73,0 0.6,1.02 0.72,1.75 0.17,0.95 -0.13,1.54 -0.42,2.46 -0.3,1.03 -0.62,1.57 -1.18,2.45 -0.65,1.03 -1.64,1.29 -1.99,2.44 -0.17,0.58 -0.29,0.93 -0.2,1.47 0.26,1.38 1.64,1.53 2.88,2.13 1.58,0.69 2.61,0.94 4.34,0.83 1.83,-0.04 3.07,-0.1 4.46,-1.29 1.38,-1.18 1.55,-2.46 2.03,-4.24 0.49,-1.73 0.54,-2.82 0.39,-4.62 2.57,-0.03 4.1,-0.38 6.44,-1.47 2.41,-1.13 3.83,-1.97 5.37,-4.09 1.68,-2.28 2.23,-4.12 2.23,-6.94l0 -7.68c0.84,0.48 1.32,0.8 2.03,1.49 0.66,0.65 1.08,1.02 1.48,1.85 0.35,0.7 0.83,1.59 1.05,2.35 0.43,1.48 0.46,1.84 0.59,3.38 0.2,2.66 -0.55,4.3 -1.86,6.66z"/>
     </g>
     <path class="fil0" d="M259.82 122.57c0.08,3.48 -0.24,7.05 -0.93,10.46 -2.68,-0.71 -5.24,-0.69 -7.99,-0.72 -2.69,0 -5.36,0.1 -7.99,0.69 -0.8,-3.97 -0.98,-7.88 -0.93,-11.91l3.61 4.3c0.34,-0.72 1.88,-4.57 2.72,-4.81l0.19 -0.05c1.02,0.54 1.29,0.49 2.42,0.49 1.16,0 1.44,0.03 2.53,-0.55 0.94,0.4 1.52,2.3 1.92,3.1 0.31,0.66 0.61,1.32 0.81,1.82l3.64 -4.3 0 1.48z"/>
     <path class="fil2" d="M380.03 69.76c-6.2,1.15 -9.81,1.51 -16.14,1.49 -10.76,-0.03 -16.46,-5.16 -27.17,-4.48 -6.07,0.38 -9.78,0.31 -15.26,2.91 -6.18,2.93 -10.28,5.44 -13.08,11.7 -2.56,5.78 -2.73,10.3 -0.51,16.21 2.17,5.71 6.13,8.76 10.67,11.53 6.72,4.14 11.44,4 19.32,4.61 11.1,0.86 17.18,-1.48 27.88,-3.87 9.17,-2.05 14.08,-4.32 23.09,-6.91 9.71,-2.83 15.22,-4.35 24.99,-6.96 3.9,-3.83 6.3,-5.85 10.73,-9.07 4.62,-3.32 7.41,-5.01 12.51,-7.56l-0.42 -3.16c-9.55,1.89 -14.9,3.16 -24.3,5.74 -11.68,3.23 -17.96,6.17 -29.58,9.61 -10.35,3.06 -16.1,5.34 -26.71,7.22 -5.99,1.07 -9.37,2.28 -15.46,1.94 -5.29,-0.29 -9.29,0.55 -13.33,-2.9 -2.04,-1.72 -3.54,-2.91 -4.02,-5.51 -0.34,-1.79 -0.48,-3.14 0.55,-4.62 0.93,-1.34 2.07,-1.99 3.71,-2.04 2.07,-0.06 3.75,0.99 4.44,2.96 0.55,1.79 0.1,3.41 -1.32,4.62 2.22,0.21 3.55,0.18 5.74,-0.18 2.62,-0.42 4.44,-0.28 6.39,-2.02 1.81,-1.61 2.65,-3.17 2.68,-5.55 0.03,-2.83 -1.18,-4.73 -3.48,-6.34 -1.52,-1.05 -2.62,-1.38 -4.46,-1.44 2.68,-0.89 4.68,-0.75 7.2,0.56 1.31,0.68 2.05,1.21 2.96,2.41 1.44,1.89 1.89,3.55 1.57,5.9 4.69,-0.4 7.41,-1.07 11.73,-2.91 4.41,-1.87 6.52,-3.69 10.39,-6.51 3.58,-2.65 5.51,-4.29 8.72,-7.37z"/>
     <path class="fil2" d="M250.97 136.94c-3.16,0 -5.48,0.02 -7.81,2.13 -0.63,0.56 -1.05,0.88 -1.44,1.62 -0.83,1.57 -0.69,2.92 0.03,4.51 1.51,3.27 5.58,1.08 9.22,1.08 3.61,0 7.67,2.19 9.21,-1.08 0.7,-1.59 0.83,-2.94 0,-4.51 -0.41,-0.73 -0.8,-1.06 -1.41,-1.62 -2.37,-2.11 -4.68,-2.13 -7.8,-2.13z"/>
     <path class="fil2" d="M419.76 154.98c-1.9,1.99 -3.54,2.96 -4.33,5.58 -0.55,1.79 -0.25,4.75 -0.25,4.75l0.35 3.65c0.16,1.58 0.08,2.54 -0.38,4.05 -0.36,1.38 -0.57,2.25 -1.55,3.3l-6.98 7.37c0.87,-1.51 1.21,-2.48 1.46,-4.2 0.26,-1.75 0.46,-2.87 -0.19,-4.49l-2.3 -5.82c-0.4,-0.94 -0.1,-1.61 0.06,-2.64 0.11,-0.83 0.19,-1.13 0.5,-2.12l-3.9 4.16c-0.96,1.05 -1.48,1.75 -1.93,3.11 -0.47,1.51 -0.66,2.54 -0.17,4.05l2.42 7.11c0.42,1.24 0.2,2.09 -0.11,3.34 -0.45,1.76 -1.13,2.69 -2.38,4l-6.96 7.39c0.89,-1.51 1.2,-2.48 1.45,-4.2 0.27,-1.76 0.47,-2.89 -0.21,-4.5l-2.27 -5.52c-0.4,-0.96 -0.09,-1.64 0.05,-2.65 0.13,-0.85 0.2,-1.14 0.53,-2.14l-3.92 4.06c-0.97,1.04 -1.48,1.76 -1.92,3.11 -0.49,1.51 -0.66,2.55 -0.17,4.04l2.42 7.14c0.41,1.24 0.17,2.07 -0.12,3.32 -0.45,1.76 -1.12,2.69 -2.38,4.02l-6.96 7.37c0.65,-1.14 0.92,-1.89 1.14,-3.2 0.27,-1.64 0.27,-2.66 -0.18,-4.27l-1.69 -6.07c-1.4,1.72 -2.28,2.63 -3.94,4.13 -2.18,1.92 -3.54,2.91 -6.06,4.37 -0.27,2.35 -0.76,3.73 -2.03,5.72 -1.57,2.48 -2.99,3.66 -5.55,5.05 -3.18,1.74 -5.55,2.2 -9.15,1.82 0.93,-1.76 1.18,-3.01 1.02,-5 -0.16,-1.75 -0.35,-2.95 -1.54,-4.24 -1.01,-1.14 -1.93,-1.64 -3.46,-1.87 0.31,0.79 0.46,1.23 0.76,2.03 0.36,1.01 0.55,1.58 0.92,2.59 -1.61,2.4 -2.7,3.66 -4.81,5.59 -2.1,1.92 -3.41,2.86 -5.89,4.21 -1.86,-0.07 -2.96,-0.11 -4.84,-0.19 -1.44,-0.06 -2.28,-0.4 -3.7,-0.17 -1.69,0.24 -2.58,0.73 -4.06,1.65 -1.93,1.23 -2.93,2.23 -4.14,4.19 -0.75,-2.41 -0.94,-3.89 -0.85,-6.41 0.2,-4.27 0.89,-7.1 3.71,-10.34 1.67,-1.93 2.96,-2.86 5.34,-3.88 -4.06,0.54 -6.52,1.89 -9.24,4.98 -1.94,2.25 -2.72,3.95 -3.31,6.86 -2.18,0.58 -3.41,1.08 -5.34,2.21 -2.53,1.41 -3.87,2.48 -5.74,4.62 -1.33,-2.34 -1.6,-4.24 -0.93,-6.84 0.43,-1.86 1,-2.95 2.38,-4.26 0.87,-0.83 1.47,-1.21 2.61,-1.68 0.99,-2.18 1.72,-3.37 3.31,-5.17 2.57,-2.92 4.54,-4.31 8.16,-5.74 -2.62,-0.32 -4.26,-0.1 -6.68,0.93 -2.36,1 -3.51,2.1 -5.18,4.07 -1.54,1.82 -2.22,3.09 -2.92,5.36 -2.28,0.66 -3.57,1.21 -5.58,2.41 -2.03,1.21 -3.11,2.06 -4.79,3.75 -1,-1.6 -1.24,-2.81 -1.1,-4.68 0.16,-2.14 0.94,-3.37 2.32,-4.99 1.44,-1.66 2.62,-2.46 4.7,-3.14 0.49,-3.53 1.34,-5.61 3.51,-8.46 2.13,-2.79 3.82,-4.2 7.02,-5.6 2.48,-1.1 4.06,-1.38 6.75,-1.49 4.03,-0.16 6.16,1.44 10.06,2.36 3.47,0.8 5.33,2.19 8.89,2.09 3.93,-0.12 6.43,-0.81 9.61,-3.14 2.97,-2.2 4.4,-4.11 5.63,-7.6 1.51,-0.57 2.33,-1.06 3.61,-2.03 1.48,-1.16 2.24,-1.96 3.31,-3.51 -2.59,1.23 -4.19,1.72 -7.02,2.21 -3.14,0.54 -5.02,0.59 -8.18,0.2 0.68,-0.83 1.06,-1.34 1.69,-2.23 3.37,-4.69 3.01,-8.61 6.1,-13.48 2.65,-4.17 4.16,-6.69 7.98,-9.81 5.52,-4.55 10.08,-5.11 17,-7.03 4.47,-1.23 7.26,-0.73 11.67,-2.21 2.28,-0.77 4.03,-0.68 5.71,-2.4 1.18,-1.22 1.82,-2.17 2.04,-3.85 0.17,-1.24 0.07,-2.04 -0.42,-3.23 2.91,-1.63 4.72,-2.28 7.98,-2.86 3.99,-0.72 6.46,-0.64 10.39,0.36 2.4,0.61 3.89,0.93 5.91,2.34 2.06,1.43 3.27,2.48 4.26,4.77 1.24,2.87 1.24,5.13 0,8 -3.01,1.79 -4.6,3.04 -7.02,5.56z"/>
     <g>
      <path class="fil2" d="M516.51 182.93c-0.29,-1.97 -0.53,-3.25 -1.77,-4.83 -1.27,-1.64 -3.01,-2.32 -4.38,-2.92 -1.31,-0.61 -4,-1 -5.44,-1l-1.68 0c-1.55,0 -2.47,0.07 -3.96,-0.37 -1.45,-0.39 -2.41,-0.57 -3.45,-1.65l-5.06 -5.36c0.71,0.31 1.22,0.41 2.02,0.55 0.71,0.13 1.1,0.18 1.79,0.18l7.24 0c1.59,0 2.5,0.17 4.05,0.57 1.14,0.27 1.75,0.48 2.85,0.92l-3.88 -6.19c-0.92,-1.44 -1.45,-2.34 -2.85,-3.31 -1.41,-0.99 -2.44,-1.48 -4.2,-1.48l-9.05 0c-1.48,0 -2.46,0.1 -3.78,-0.57 -1.27,-0.65 -1.7,-1.45 -2.61,-2.55l-3.95 -4.98c0.88,0.48 1.46,0.62 2.44,0.85 0.83,0.18 1.29,0.28 2.12,0.28l7.94 0c1.93,0 3.04,0.27 4.87,0.85 1.36,0.43 2.12,0.73 3.38,1.42l-7.36 -9.61c-0.78,-1 -1.27,-1.57 -2.35,-2.18 -1.24,-0.71 -2.1,-0.97 -3.52,-0.97l-7.01 -0.01c-1.37,0 -2.21,-0.03 -3.45,-0.59 -1.27,-0.55 -2.04,-1.03 -2.72,-2.21l-5.84 -9.81c4.74,0 7.55,-0.56 11.96,-2.4 5.11,-2.13 8.3,-3.77 11.52,-8.27 3.24,-4.55 4.28,-8.14 4.07,-13.73 -0.2,-4.7 -1.14,-7.53 -3.69,-11.46 -2.41,-3.75 -4.56,-5.37 -8.29,-7.78 -3.72,-2.42 -6.42,-2.68 -10.53,-4.44 -4.66,-2.03 -9.53,-0.79 -11.93,-5.27 -1.12,-2.12 -1.93,-3.74 -1.21,-6 0.7,-2.13 1.93,-3.37 4.03,-4.07 -4.99,-1.82 -8.76,-1.7 -13.64,0.42 -3.38,1.45 -5.58,2.66 -7.44,5.87 -2.02,3.52 -2.34,6.5 -1.12,10.34 -4.77,2.42 -7.33,4.03 -11.63,7.22 -5.94,4.4 -9.04,7.32 -13.8,12.95 4.59,-1.14 7.24,-1.64 11.94,-2.22 4.22,-0.51 6.65,-0.69 10.92,-0.73 -0.2,-2.42 0.13,-3.96 1.28,-6.1 2.09,-3.89 5.26,-5.83 9.67,-5.9 -1.93,0.76 -2.96,1.58 -4.17,3.27 -1.59,2.24 -2.68,4.34 -1.61,6.88 0.93,2.25 2.56,3.61 4.99,3.7 1.32,0.07 2.2,-0.17 3.34,-0.92 -0.35,-1.48 -0.33,-2.41 0.04,-3.89 1.02,-3.95 4.43,-6.4 8.5,-6.11 -1.27,0.64 -1.9,1.16 -2.82,2.21 -2.76,3.27 -3.09,7.5 -0.56,10.94 2.11,2.85 5,3.97 8.5,3.31 -0.54,-0.9 -0.72,-1.54 -0.75,-2.58 -0.01,-3.14 3.17,-5.02 6.32,-4.99 3.36,0 6.18,2.47 6.33,5.81 0.32,6.77 -5.47,6.26 -10.21,6.89 -3.07,0.39 -4.8,-0.66 -7.84,-1.25 -4.41,-0.82 -6.79,-1.76 -11.22,-2.58 -9.7,-1.81 -15.33,-2.72 -25.18,-2.23 -7.71,0.4 -11.98,1.69 -19.56,3.15 -12.26,2.36 -18.86,5.14 -31.09,7.6 -13.64,2.72 -21.4,5.18 -35.29,5.35 -14.88,0.17 -23.51,-1.01 -37.77,-5.18 1.53,2.72 2.12,4.5 2.62,7.58 0.27,1.72 0.24,2.72 0.24,4.46 -1.44,-3.5 -2.51,-5.38 -4.64,-8.51 -2.82,-4.2 -5.94,-5.45 -8.51,-9.81 -0.59,-1.06 -1.13,-1.59 -1.48,-2.77 -0.35,-1.25 -0.45,-2.06 -0.16,-3.34 0.21,-1.01 0.48,-1.58 1.1,-2.4 0,0.92 0.14,1.47 0.54,2.27 0.31,0.54 0.51,0.83 0.94,1.24l8.89 8.86c1,-6.12 0.8,-9.91 -0.88,-15.89 -1.29,-4.45 -2.41,-6.91 -5.05,-10.72 1.47,-4 1.93,-6.47 2.04,-10.73 0.08,-3.25 -0.11,-5.15 -0.87,-8.33 -1.95,1.16 -3.02,1.88 -4.85,3.24 -1.22,0.92 -2.16,1.22 -3.09,2.44 -1.08,1.41 -1.47,2.49 -1.73,4.26 -0.2,1.62 -0.1,2.62 0.4,4.19 -1.82,-1.13 -2.77,-2.16 -3.71,-4.09 -0.88,-1.83 -1.48,-3.17 -0.93,-5.15 0.42,-1.46 1.07,-2.24 2.22,-3.21 1.82,-1.55 3.61,-0.96 5.88,-1.73 2.13,-0.71 3.31,-1.16 5.39,-2.02 -0.1,-0.42 -0.2,-0.65 -0.35,-1.02 -0.2,-0.39 -0.34,-0.59 -0.58,-0.93 -3.07,-0.77 -4.95,-0.93 -8.14,-0.66 -1.75,0.16 -2.73,0.33 -4.41,0.8 -2.28,-2.59 -4.13,-3.79 -7.41,-4.8 -2.03,-0.64 -3.27,-0.8 -5.34,-0.75 -2.68,-2.34 -4.57,-3.37 -7.96,-4.3 -3.09,-0.84 -4.99,-0.48 -8.15,-0.48 -3.21,0 -5.1,-0.36 -8.19,0.48 -3.38,0.93 -5.31,1.96 -7.93,4.3 -2.12,-0.05 -3.36,0.11 -5.39,0.75 -3.27,1.01 -5.14,2.21 -7.38,4.8 -1.72,-0.48 -2.71,-0.65 -4.43,-0.8 -3.2,-0.27 -5.07,-0.11 -8.16,0.66 -0.2,0.34 -0.29,0.54 -0.49,0.87 -0.2,0.39 -0.29,0.63 -0.43,1.07 2.07,0.86 3.25,1.31 5.38,2.02 2.27,0.77 4.06,0.18 5.88,1.73 1.2,0.97 1.82,1.75 2.22,3.21 0.55,1.97 -0.05,3.31 -0.94,5.15 -0.94,1.93 -1.84,2.96 -3.7,4.09 0.52,-1.57 0.61,-2.56 0.39,-4.19 -0.24,-1.76 -0.65,-2.85 -1.73,-4.26 -0.93,-1.21 -1.84,-1.52 -3.06,-2.43 -1.83,-1.38 -2.92,-2.1 -4.85,-3.35 -0.73,3.22 -0.93,5.12 -0.89,8.43 0.1,4.26 0.6,6.72 2.09,10.72 -2.68,3.82 -3.82,6.27 -5.1,10.73 -1.68,5.98 -1.88,9.77 -0.83,15.89l8.85 -8.87c0.43,-0.41 0.63,-0.7 0.93,-1.24 0.39,-0.8 0.55,-1.35 0.55,-2.27 0.64,0.81 0.89,1.38 1.12,2.4 0.27,1.28 0.17,2.09 -0.17,3.34 -0.37,1.17 -0.87,1.7 -1.5,2.76 -2.56,4.36 -5.68,5.61 -8.5,9.81 -2.13,3.13 -3.17,5.03 -4.65,8.51 -0.55,-1.21 -0.72,-2 -0.75,-3.34 0,-1.25 0.16,-1.97 0.62,-3.14 -4.72,-2.73 -7.35,-4.46 -11.69,-7.75 -4.14,-3.17 -6.78,-4.78 -10.18,-8.71 -4.06,-4.62 -8.81,-7.39 -8.14,-13.49 0.35,-3.17 2.21,-4.46 3.39,-7.4 1.48,-3.66 3.46,-5.67 3.27,-9.61 -0.18,-4.22 -1.49,-6.99 -4.61,-9.81 0.23,-2.5 -0.1,-4.11 -1.32,-6.29 -1.64,-3.03 -3.67,-4.55 -7.03,-5.36 1.14,1.92 1.46,3.31 1.31,5.54 -0.11,1.99 -0.56,3.16 -1.65,4.81 1.15,1.57 1.53,2.85 1.48,4.82 -0.1,2.31 -0.85,3.83 -2.62,5.36 0.55,-3.09 0.2,-5.19 -1.28,-7.95 -1.54,-2.81 -3.11,-4.31 -6.07,-5.55 -0.89,-3.96 -4.12,-6.52 -8.16,-6.47 -2.42,0.03 -4,0.69 -5.73,2.4 2.16,0.27 3.57,1.14 4.78,2.96 0.69,1.01 1,1.73 1.14,2.97 -0.84,0.53 -1.24,0.91 -1.87,1.65 -0.75,0.96 -1.08,1.61 -1.47,2.78 3.15,0.16 5.17,1.16 7.19,3.52 2.14,2.44 2.82,4.73 2.44,7.93 -0.65,-1.89 -1.24,-2.94 -2.58,-4.42 -3.31,-3.62 -7.28,-4.84 -12.04,-3.65 -1.9,-2.04 -3.89,-2.8 -6.65,-2.64 -2.9,0.17 -4.85,1.28 -6.47,3.69 1.87,0.1 3.01,0.45 4.59,1.5 1.24,0.76 1.83,1.35 2.66,2.52 -0.79,0.94 -1.18,1.54 -1.72,2.65 -1.14,2.35 -1.48,4.02 -1.3,6.65 0.2,2.92 0.71,4.81 2.58,7.03 2.03,2.35 3.95,3.83 7.05,3.69 1,-0.04 1.61,-0.27 2.59,-0.56 1.08,-0.31 1.64,-1.18 2.76,-1.06 2.77,0.33 3.72,4.03 0,5.31 -0.99,0.34 -1.58,-0.32 -2.59,-0.55 -1.27,-0.28 -1.9,-0.86 -3.18,-0.73 -1.69,0.16 -2.68,0.92 -3.75,2.21 -1.14,1.34 -1.54,2.48 -1.57,4.26 -1.25,0.38 -2.1,0.38 -3.34,0 -0.93,-0.29 -1.48,-0.62 -2.22,-1.3 -0.64,2.41 -0.28,4.26 1.14,6.31 1.44,2.02 3.07,2.93 5.52,3.13 1.59,3.29 3.37,5.02 6.68,6.6 1.61,0.79 2.62,1.35 4.4,1.31 2.22,-0.07 3.21,-1.28 5.2,-2.21 1.32,-0.62 1.87,-1.49 3.34,-1.67 1.55,-0.2 2.58,0.07 3.86,0.93 1.83,1.2 2.65,2.77 2.58,4.95 -0.06,2.83 -2.13,4.34 -4.7,5.53 -1.93,0.92 -3.35,1.08 -5.44,0.68l4.59 4.29c1.59,1.44 2.56,2.21 4.49,3.1 2.03,0.92 3.37,1.39 5.59,1.39l0.87 0c2.2,0 3.45,-0.02 5.55,0.52 2.28,0.56 3.82,0.76 5.44,2.38l4.76 4.64c-1.2,-0.43 -1.95,-0.58 -3.23,-0.77 -1.04,-0.18 -1.64,-0.27 -2.68,-0.27l-1.13 -0.01c-2.42,0 -3.81,-0.28 -6.19,-0.8 -1.82,-0.39 -2.8,-0.68 -4.54,-1.32l7.52 7.15c1.53,1.47 2.52,2.23 4.45,3.1 2.07,0.93 3.36,1.41 5.58,1.41l0.89 0c2.17,0 3.45,-0.03 5.6,0.5 2.21,0.6 3.75,0.79 5.43,2.38l4.85 4.67c-1.18,-0.47 -1.93,-0.6 -3.21,-0.8 -1.04,-0.17 -1.64,-0.26 -2.66,-0.26l-1.5 0c-2.41,0 -3.81,-0.28 -6.17,-0.8 -1.83,-0.39 -2.82,-0.69 -4.56,-1.32l8.7 7.78c1.1,0.99 1.74,1.57 3.07,2.17 1.44,0.65 2.33,0.98 3.87,0.98l10.33 0c-8.75,4.89 -11.08,7.37 -18.74,11.29 -8.37,4.28 -12.8,10.04 -22.2,9.43 -3.62,-0.22 -5.48,-1.46 -9.03,-2.21 -2.33,-0.49 -3.61,-1.1 -5.94,-1.1 -3.11,-0.03 -5.11,0.21 -7.75,1.83 -2.03,1.23 -3.05,2.26 -4.26,4.27 2.37,-0.86 3.95,-1 6.47,-0.58 2.76,0.47 4.37,1.25 6.48,3.16 -2.09,-0.47 -3.27,-0.59 -5.4,-0.56 -4.17,0.07 -6.89,0.42 -10.33,2.78 -3.36,2.29 -5.38,4.36 -6.32,8.33 -0.5,2.24 -0.5,3.67 0,5.91 -1.04,0.77 -1.58,1.32 -2.38,2.35 -1.33,1.66 -2.36,2.75 -2.42,4.86 -0.04,2.14 0.6,3.64 2.22,5.05 0.79,-2.34 1.94,-3.66 4.06,-4.86 1.44,-0.8 2.41,-1.07 4.11,-1.1 0.59,0.49 0.93,0.75 1.63,1.1 0.89,0.48 1.43,0.68 2.41,0.93l2.04 -2.39c-0.35,-3.92 0.45,-6.61 2.96,-9.63 2.96,-3.6 6.27,-5.06 10.92,-4.81 -4.31,1.16 -6.88,3.45 -8.51,7.59 -1.03,2.49 -1.18,4.18 -0.73,6.85 -1.93,0.97 -2.92,2.02 -3.87,3.96 -1.44,3.05 -1.24,5.82 0.71,8.59 1.23,-2.16 2.26,-3.3 4.24,-4.8 2.27,-1.71 3.85,-2.4 6.63,-2.96 1.44,0.41 2.27,0.6 3.76,0.73 2.21,0.25 3.51,0.2 5.69,-0.17 -0.9,-1.66 -1.2,-2.75 -1.31,-4.62 -0.2,-4.53 1.75,-8.34 5.94,-9.99 1.79,-0.68 2.95,-0.83 4.81,-0.56 -1.93,0.55 -3.02,1.2 -4.4,2.61 -2.18,2.14 -3.52,4.2 -2.97,7.22 0.39,2.28 1.34,3.72 3.31,4.99 1.29,0.8 2.19,1.09 3.71,1.17 -0.02,1.15 -0.1,1.8 -0.4,2.94 -0.29,1.37 -0.59,2.13 -1.28,3.37 2.96,-0.31 4.75,-1.07 7.02,-2.96 1.62,-1.32 2.4,-2.27 3.36,-4.1 1.54,-0.42 2.42,-0.89 3.69,-1.92 2.62,-2.14 4.14,-4.51 3.62,-7.85 -0.3,-2.09 -0.98,-3.32 -2.51,-4.72 -0.31,-2.89 2.07,-5.51 4.99,-5.54 3.09,-0.04 5.44,3.1 4.99,6.14 -0.16,1.06 -0.4,1.64 -1.03,2.48l8.99 -0.11c1.38,-0.02 2.21,-0.21 3.45,-0.85 1.44,-0.72 2.23,-1.31 3.02,-2.66l3.61 -5.96c0.65,-1.1 1.14,-1.7 2.22,-2.43 0.99,-0.72 1.62,-1.24 2.86,-1.24l6.48 0.06c-0.75,0.48 -1.14,0.75 -1.76,1.38 -0.51,0.54 -0.83,0.87 -1.21,1.52l-2.92 4.92c-0.91,1.51 -1.68,2.21 -2.96,3.4 -0.92,0.9 -1.49,1.34 -2.52,2.06l10.73 -0.17c1.44,-0.01 2.27,-0.23 3.51,-0.83 1.38,-0.72 2.19,-1.35 3.02,-2.68l7.61 -11.87c-1.65,-1.44 -7.02,-4.04 -8.59,-8.47 -0.71,-1.9 -0.94,-3.1 -0.85,-5.11 0.06,-1.69 0.35,-2.65 0.94,-4.26 0.54,-1.55 1.34,-2.24 1.83,-3.82 0.39,-1.22 0.59,-1.92 0.63,-3.2 0,-0.99 -0.04,-1.58 -0.29,-2.54l3.93 2.11c0.92,0.53 1.41,1 1.96,1.93 0.54,0.96 0.66,1.67 0.59,2.75 -0.05,1.14 -0.55,1.69 -0.88,2.76 -0.62,1.76 -1.4,2.65 -1.59,4.47 -0.18,1.89 -0.14,3.07 0.65,4.8 0.94,2.19 2.46,2.84 4.34,4.34 2.39,1.93 3.96,2.85 6.78,4.03l0 -17 6.27 0.01 0 15.71c0,1.41 0.16,2.31 0.9,3.51 0.59,1.06 1.13,1.69 2.21,2.23l5 2.4c1.77,0.86 3.05,0.86 4.99,0.73 1.58,-0.08 2.47,-0.28 3.9,-0.9l9.01 -3.9c-1.14,0.17 -1.83,0.1 -2.97,-0.2 -1.24,-0.32 -1.79,-0.92 -2.93,-1.54l-11.66 -6.23c1.39,-1.13 2.03,-2.35 2.56,-4.2 0.51,-1.55 0.51,-2.55 0.41,-4.17 -0.16,-1.55 -0.61,-2.35 -0.94,-3.89 -0.23,-0.93 -0.54,-1.42 -0.54,-2.4 -0.05,-0.94 0,-1.52 0.34,-2.4 0.33,-0.73 0.49,-1.24 1.18,-1.67l4.99 -3.31c-0.14,0.83 -0.2,1.32 -0.2,2.21 0,1.1 0.16,1.7 0.37,2.78 0.28,1.33 0.77,2 1.11,3.32 0.35,1.42 0.55,2.24 0.55,3.69 0.05,2.81 -0.42,4.51 -1.66,7.03l12.04 6.66c1.2,0.66 1.94,1.02 3.32,1.16 1.32,0.12 2.11,0.05 3.36,-0.42l11.08 -4.32c-1.17,0.14 -1.89,0.1 -2.97,-0.19 -1.29,-0.34 -1.83,-0.89 -2.96,-1.52l-11.46 -6.3c-0.71,-0.37 -1.14,-0.46 -1.84,-0.73 -0.79,-0.31 -1.23,-0.48 -2.07,-0.75 0.55,-0.79 0.65,-1.34 0.94,-2.21 0.44,-1.27 0.69,-2.01 0.93,-3.33 0.55,-3.06 0.2,-4.89 -0.4,-7.96 -0.54,-3.1 -2.02,-4.58 -2.52,-7.69 -0.29,-0.93 -0.4,-1.47 -0.34,-2.41 0.01,-0.9 -0.16,-1.7 0.54,-2.27l6.04 -5.07c-0.15,0.94 -0.21,1.48 -0.15,2.41 0,0.73 0.01,1.16 0.15,1.86 0.3,1.45 0.93,2.14 1.48,3.51 0.6,1.45 0.93,2.28 1.48,3.76 0.99,-0.96 1.52,-1.55 2.4,-2.65 1.51,-1.92 2.4,-3.06 3.13,-5.36 0.65,-1.9 0.85,-3.07 0.76,-5.07 -0.16,-2.05 -0.31,-3.36 -1.44,-5.05l-2.99 -4.42c-0.72,-1.1 -0.97,-1.9 -1.07,-3.21 -0.16,-1.72 0.35,-2.72 1.07,-4.33l2.99 -6.88c-0.4,1.25 -0.51,2.06 -0.35,3.37 0.13,0.96 0.25,1.52 0.69,2.36l2.38 4.47 3.06 4.03 3.01 6.99c0.44,2.5 0.44,4.03 0,6.54 -0.61,3.13 -1.64,4.72 -3.27,7.46 -2.66,4.5 -7.45,8.27 -9.09,9.88 0,0 0.17,1.31 0.16,2.16 -0.06,2.09 -0.45,3.27 -1.28,5.19l15.51 8.32c1.24,0.66 1.98,1.03 3.34,1.16 1.31,0.14 2.21,0.22 3.39,-0.43l7.57 -4.04c-1.1,0.38 -1.95,0.32 -2.98,-0.2 -1.17,-0.56 -1.58,-1.37 -2.03,-2.58 -1.08,-2.92 1.13,-5.81 3.68,-7.02 10.36,-5.01 21.18,-8.76 34.4,-14.94 14.86,-6.95 22.27,-13.01 37.55,-19 8.24,-3.23 12.67,-7.19 21.55,-7.17 5.51,0.02 9.19,-0.14 13.87,2.84 2.27,1.42 3.58,2.4 5.06,4.62 1.32,1.95 1.7,3.31 2.22,5.58 1.28,5.45 -2.44,8.67 -1.86,14.25 0.69,6.23 1.89,10.18 5.94,14.96 3.37,4 6.46,5.12 11.05,7.59 3.08,1.68 5.74,1.2 8.19,3.7 1.16,1.18 1.95,1.9 2.4,3.51 0.37,1.32 0.37,2.2 0,3.51 2.57,0.09 4.07,-0.18 6.47,-1.12 3.61,-1.38 5.6,-2.93 7.76,-6.09l9.97 0c0.98,1.67 1.27,2.83 1.31,4.76 0.03,2.19 0,3.81 -1.48,5.4 -1.53,1.64 -3.21,1.51 -5.41,1.86 -3.07,0.47 -4.85,-0.86 -7.97,-0.75 -3.48,0.13 -5.75,-0.04 -8.82,1.66 -3.44,1.93 -5.13,4.05 -6.49,7.77 -0.84,2.47 -1.03,4.06 -0.73,6.66 -1.41,0.89 -2.13,1.68 -2.96,3.15 -1.6,2.89 -1.6,5.61 0,8.5 1.58,-1.83 2.62,-2.75 4.64,-4.06 1.62,-1.06 2.62,-1.57 4.43,-2.21 0.23,-5.35 2.87,-9.18 7.76,-11.31 2.86,-1.21 4.92,-1.41 7.97,-0.73 -3.57,0.76 -5.67,1.95 -8.13,4.62 -3.17,3.44 -4.34,6.61 -4.07,11.29 -1.01,1.38 -1.34,2.52 -1.24,4.24 0.12,1.83 0.66,2.99 1.97,4.26 2.52,-4.14 5.28,-6.2 9.99,-7.38 2.39,-0.62 3.85,-0.71 6.31,-0.37 -1.07,-4.02 -0.4,-7.16 2.2,-10.36 2.73,-3.37 5.94,-4.7 10.22,-4.26 -2.54,0.72 -4.02,1.73 -5.61,3.88 -1.45,2.03 -2.24,3.62 -2.02,6.12 0.24,2.76 1.35,4.59 3.7,6.1 -0.1,1.37 0.03,2.21 0.54,3.5 0.58,1.37 1.14,2.1 2.28,3.01 0.39,-1.95 0.99,-3.07 2.36,-4.5 0.98,-1.01 1.68,-1.45 2.93,-2.02 2.09,-0.94 3.54,-0.32 5.76,-0.75 3.71,-0.7 6.43,-0.28 9.23,-2.78 2.07,-1.84 3.16,-3.43 3.55,-6.2 0.52,-3.53 -0.51,-6.25 -3.18,-8.6 0.56,-3.64 0.69,-5.75 0.56,-9.44 -0.14,-3.85 -0.45,-6.03 -1.37,-9.78l1.17 0.01c1.17,0 1.44,0.16 2.99,0.55 1.13,0.27 2.45,1.48 3.24,3.02 0.56,-2.12 0.63,-3.41 0.29,-5.57l0 0zm-239.04 -99.2c-0.11,1.64 -0.65,2.93 -1.89,4.3 -1.32,1.46 -2.42,2.34 -4.2,2.34l-4.4 0c1.14,1.13 2.07,2 2.07,3.81 0,2.31 -1.87,4.19 -4.2,4.19 -2.33,0 -4.2,-1.88 -4.2,-4.19 0,-1.2 0.49,-2.26 1.28,-3l0.79 -0.8 -4.79 0c-1.08,0 -1.73,0.59 -2.56,1.47l0 -1.22c0,-0.73 -0.06,-1.37 0,-1.96 0.1,-1.24 1.24,-2.65 2.56,-2.65l14.04 0.01c1.93,0 4.1,-0.89 5.5,-2.28l0 0zm-15.17 -16.96c0.76,0 1.21,0.17 1.86,0.54 0.66,0.37 0.99,0.69 1.48,1.3l4.55 5.92c0.34,0.41 0.4,0.75 0.73,1.12 0.51,0.43 0.87,0.61 1.5,0.73l-3.69 0c-1.12,0 -1.79,-0.18 -2.79,-0.73 -0.93,-0.58 -1.33,-1.14 -2.02,-2.04l-3.68 -4.81c-0.31,-0.43 -0.48,-0.73 -0.87,-1.12 -0.49,-0.43 -0.8,-0.63 -1.35,-0.9l4.28 0zm-14.84 -2.24c1.07,0 1.73,0.35 2.66,0.93 0.79,0.5 1.22,0.87 1.77,1.67l5.38 7.75c0.35,0.47 0.55,0.72 0.94,1.12 0.65,0.61 1.09,0.92 1.88,1.3l-4.93 0c-1.14,0 -1.9,-0.23 -2.82,-0.93 -0.72,-0.55 -0.92,-1.09 -1.38,-1.85l-4.46 -6.85c-0.44,-0.69 -0.69,-1.1 -1.3,-1.66 -0.83,-0.78 -1.43,-1.13 -2.48,-1.48l4.72 -0.01zm-12.26 2.24c0.75,0 1.18,0.17 1.82,0.54 0.69,0.37 1.04,0.69 1.49,1.3l4.59 5.92c0.3,0.41 0.35,0.75 0.73,1.12 0.45,0.43 0.85,0.61 1.47,0.73l-3.68 0c-1.14,0 -1.83,-0.18 -2.76,-0.73 -1,-0.58 -1.39,-1.14 -2.06,-2.04l-3.64 -4.81c-0.34,-0.43 -0.55,-0.73 -0.94,-1.12 -0.47,-0.43 -0.79,-0.63 -1.34,-0.9l4.32 0zm-5.26 19.24l14 0c0.84,0 1.33,0.39 1.98,1.17 0.86,1 0.6,2.22 0.6,3.44l-0.13 1.04c-0.72,-0.7 -1.31,-1.3 -2.45,-1.3l-4.79 0c1.2,1.13 2.09,2 2.09,3.81 0,2.31 -1.89,4.19 -4.19,4.19 -2.3,0 -4.17,-1.88 -4.17,-4.19 0,-1.2 0.43,-2.26 1.24,-3l0.83 -0.8 -4.4 0c-1.83,0 -2.86,-0.87 -4.2,-2.34 -1.24,-1.37 -1.83,-2.66 -1.89,-4.3 1.34,1.39 3.53,2.28 5.48,2.28l0 0zm-5.82 76.59l-1.68 4.81c-0.49,1.39 -0.55,2.27 -0.8,3.75 -0.46,3.02 -0.54,4.79 -0.31,7.84 -0.92,-0.73 -1.41,-1.22 -2.2,-2.13 -0.84,-0.92 -1.18,-1.51 -1.87,-2.54 -1.54,-2.35 -2.19,-3.85 -3.11,-6.43l-0.2 -0.83c-2.73,-0.84 -6.98,-1.13 -9.29,-4.06 -2.14,-2.68 -2.34,-4.91 -2.82,-8.26 -0.45,-2.8 -0.45,-4.48 0,-7.28l2.62 -7.75 2.65 -4.47 2.09 -4.98c0.4,-0.96 0.49,-1.59 0.6,-2.65 0.14,-1.44 0.07,-2.31 -0.3,-3.71l3.67 5.61c0.88,1.37 0.93,2.42 0.93,4.06 0.03,1.7 -0.1,2.77 -0.93,4.29l-3.67 6.94c-1.04,1.99 -1.14,3.38 -1.24,5.62 -0.1,2.2 -0.34,3.64 0.62,5.62 1.46,3.03 3.77,4.61 7.15,4.79 0.04,-1.43 0.1,-2.23 0.36,-3.64 0.28,-1.57 0.82,-2.36 1.07,-3.95 0.1,-0.7 0.14,-1.12 0.2,-1.83 0,-0.95 -0.06,-1.47 -0.2,-2.41l6.07 8.7c0.65,0.86 0.69,1.58 0.75,2.65 0.1,0.86 0.1,1.38 -0.16,2.21l0 0zm60.28 -60.52c-1.15,2.09 -2.16,3.16 -4.07,4.62 -2.03,1.53 -3.56,1.76 -5.9,2.76 -0.52,0.23 -0.87,0.21 -1.31,0.57 -0.49,0.48 -0.49,1 -0.75,1.66 -0.35,1.04 -0.2,1.72 -0.55,2.78 -0.44,1.38 -0.73,2.21 -1.65,3.32 -1.27,1.48 -2.35,2.19 -4.27,2.64 -0.03,2.73 -0.16,4.27 -0.49,6.98 -0.4,3.3 -0.8,5.11 -1.67,8.32 0.53,1.03 0.76,1.62 1.12,2.73 0.55,1.75 0.72,2.83 0.65,4.68 -0.1,2.56 -0.25,4.31 -1.83,6.34 -3.06,3.93 -7.74,1.34 -12.7,1.34 -5.01,0 -9.7,2.59 -12.76,-1.34 -1.58,-2.03 -1.73,-3.78 -1.83,-6.34 -0.06,-1.85 0.11,-2.93 0.63,-4.68 0.35,-1.12 0.61,-1.7 1.14,-2.73 -0.89,-3.2 -1.23,-5.02 -1.68,-8.32 -0.35,-2.71 -0.45,-4.24 -0.49,-6.98 -1.93,-0.45 -3.01,-1.16 -4.26,-2.64 -0.93,-1.12 -1.24,-1.95 -1.68,-3.32 -0.34,-1.06 -0.19,-1.74 -0.54,-2.78 -0.25,-0.66 -0.21,-1.18 -0.75,-1.66 -0.39,-0.35 -0.79,-0.34 -1.3,-0.57 -2.36,-1 -3.89,-1.22 -5.92,-2.76 -1.93,-1.47 -2.92,-2.54 -4.06,-4.62 -1.32,-2.37 -2.07,-3.98 -1.87,-6.67 0.14,-1.52 0.19,-1.9 0.59,-3.37 0.23,-0.76 0.69,-1.66 1.05,-2.35 0.42,-0.83 0.83,-1.21 1.48,-1.84 0.69,-0.69 1.18,-1.02 2.03,-1.48l0 7.65c0,2.85 0.54,4.65 2.21,6.95 1.53,2.13 2.99,2.97 5.4,4.07 2.31,1.08 3.85,1.44 6.47,1.46 -0.2,1.81 -0.1,2.89 0.35,4.64 0.49,1.76 0.65,3.06 2.03,4.24 1.38,1.17 2.63,1.23 4.44,1.3 1.73,0.08 2.78,-0.14 4.35,-0.87 1.23,-0.57 2.62,-0.73 2.88,-2.09 0.08,-0.56 0,-0.92 -0.21,-1.48 -0.35,-1.17 -1.32,-1.42 -1.97,-2.45 -0.54,-0.89 -0.88,-1.42 -1.18,-2.46 -0.31,-0.9 -0.55,-1.49 -0.39,-2.43 0.09,-0.75 -0.06,-1.76 0.69,-1.76l10.22 0c0.73,0 0.6,1.01 0.72,1.76 0.17,0.95 -0.13,1.53 -0.42,2.43 -0.3,1.03 -0.62,1.57 -1.18,2.46 -0.65,1.03 -1.64,1.28 -1.99,2.45 -0.17,0.57 -0.29,0.92 -0.2,1.48 0.26,1.36 1.64,1.51 2.88,2.09 1.58,0.73 2.61,0.95 4.34,0.87 1.83,-0.07 3.07,-0.12 4.46,-1.3 1.38,-1.18 1.55,-2.48 2.03,-4.24 0.49,-1.75 0.54,-2.83 0.39,-4.64 2.57,-0.03 4.1,-0.38 6.44,-1.46 2.41,-1.1 3.83,-1.95 5.37,-4.07 1.68,-2.3 2.23,-4.1 2.23,-6.95l0 -7.65c0.84,0.46 1.32,0.79 2.03,1.48 0.66,0.63 1.08,1.01 1.48,1.84 0.35,0.69 0.83,1.59 1.05,2.35 0.43,1.47 0.46,1.84 0.59,3.37 0.2,2.69 -0.55,4.3 -1.86,6.67z"/>
     </g>
     <g>
      <path class="fil0" d="M554.24 193.85c3.62,-9.1 8.28,-18 14.36,-27.64 7.55,-12.05 18.16,-22.32 32.23,-25.99l2.1 4.22c-3.83,3.05 -4.03,6.8 -2.81,11.29 2.68,9.85 11.87,12.66 20.66,9.4 10.19,-3.76 14.56,-15.36 13.37,-25.58 -4.46,-19.34 -28.66,-20.03 -43.07,-11.97 -20.07,11.21 -32.73,44.05 -36.51,64.44l-0.34 1.82zm41.07 -46.66c-13.31,6.17 -21.31,18.97 -28.19,31.32 -11.23,20.09 -14.97,33.28 -17.94,56.21 -3.55,27.27 1.07,74.34 7.96,99.89 12.71,46.99 21.13,72.66 63.45,107.98l7.32 28.95c-5.17,23.21 -9.36,35.9 -19.11,57.52 -8.53,18.89 -13.66,29.96 -26.4,46.62 -12.59,16.45 -21,25.39 -37.9,37.54 -22.65,16.29 -38.76,21.11 -65.23,28.6 -21.42,6.09 -34.8,6.84 -56.66,12.77 -31.9,8.65 -51.26,13.89 -78.8,33.35 -8.93,6.3 -16.34,12.64 -24.22,20.2 -17.86,-17.11 -37.78,-31.16 -60.79,-40.58 -15.84,-6.49 -25.6,-8.46 -42.23,-12.97 -21.86,-5.94 -35.24,-6.68 -56.66,-12.77 -26.45,-7.48 -42.59,-12.3 -65.24,-28.6 -16.9,-12.15 -25.32,-21.09 -37.9,-37.54 -12.74,-16.66 -17.87,-27.74 -26.4,-46.62 -9.75,-21.62 -13.92,-34.31 -19.1,-57.52l7.31 -28.95c25.98,-21.68 38.19,-37.79 51.56,-68.84 5.48,-12.74 8.68,-25.64 11.86,-39.07 5.68,-23.98 7.59,-37.94 8.58,-62.55 0.6,-14.59 1.29,-22.94 -0.59,-37.41 -3.38,-26.12 -9.66,-43.94 -23.49,-65.95 -5.4,-8.58 -13.31,-17.25 -22.64,-21.58 1.3,3.65 0.75,6.48 -0.17,9.82 -3.43,12.6 -15.53,16.87 -26.99,12.64 -14.01,-5.2 -19.3,-22.11 -15.52,-35.53 4.79,-17.01 12.28,-22.94 23.71,-35.13 8.05,-8.61 17.9,-14.98 26.34,-23.16 18.08,-17.53 27.94,-27.85 39.23,-51.68 32.64,8.85 50.99,5.69 82.68,-2.82 20.41,-5.48 31.36,-12.56 52.39,-16.73 15.51,-3.09 26.74,-4.61 40.26,-4.61 19.23,0 38.58,6.84 53.8,18.49 15.23,-11.66 34.58,-18.49 53.8,-18.49 13.52,0 24.75,1.52 40.24,4.61 21.04,4.17 31.98,11.24 52.4,16.73 31.57,8.49 50.13,11.64 82.68,2.82 12.72,26.87 29.51,44.64 52.36,62.89 11.16,8.92 28.23,25.02 33.66,38.35 1.59,3.94 2.96,7.78 3.75,11.63 0.14,0.49 0.27,1 0.4,1.51 0.9,6.2 0.36,12.36 -3.11,18.83 -3.23,5.98 -6.58,9.8 -13.29,12.29 -11.45,4.23 -23.57,-0.04 -27.01,-12.64 -0.9,-3.33 -1.46,-6.17 -0.16,-9.82l0 0zm-577.19 316.95c17.05,-16.69 31.11,-36.11 40.68,-57.99 -9.15,14.22 -20.03,25.81 -35.91,39.14l-4.77 18.85zm66.75 -270.58l-0.27 -1.54c-4.55,-24.53 -20.94,-66.41 -51.35,-69.17 -12.01,-1.09 -24.45,3.2 -27.95,15.6 -1.05,5.44 -0.73,10.89 2.35,16.62 2.85,5.3 5.43,8.11 10.71,10.06 8.81,3.26 18,0.46 20.68,-9.4 1.22,-4.5 1.03,-8.25 -2.81,-11.29l2.1 -4.22c18.95,4.92 28.94,19.82 37.93,35.94 3.51,6.29 6.32,11.94 8.59,17.41l0 0zm537.92 278.85c-21.71,-19.83 -39.13,-43.79 -49.66,-71.32 -3.48,-9.15 -6.37,-18.66 -10.63,-30.81l0.19 -0.07c-3.59,-10.35 -6.73,-21.61 -10.19,-34.35 -6.47,-23.95 -10.96,-66.56 -8.81,-94.8 0.66,-18.4 2.78,-31.7 6.13,-49.9 5.03,-27.14 22.69,-70.13 55.65,-73.12 8.27,-0.73 16.56,0.8 22.9,5.03 -4.34,-7.69 -10.07,-12.71 -17.61,-20.78 -7.99,-8.54 -17.82,-14.88 -26.19,-23 -16.66,-16.15 -28.05,-27.77 -38.51,-49.45 -30.84,8.12 -51.49,4.16 -81.3,-3.86 -20.29,-5.44 -31.16,-12.5 -52.08,-16.66 -15.12,-3.02 -26.12,-4.51 -39.32,-4.51 -20.18,0 -38.14,7.5 -53.8,19.8 -8.98,-7.05 -13.94,-10.16 -24.58,-14.19 -10.94,-4.12 -18.52,-5.61 -29.22,-5.61 -13.21,0 -24.17,1.49 -39.31,4.51 -20.91,4.16 -31.8,11.22 -52.08,16.66 -29.81,8.02 -50.46,11.98 -81.3,3.86 -12.03,24.94 -30.63,43.9 -52,60.98 -9.21,7.35 -23.33,20.41 -29.98,31.93 10.99,-7.08 27.5,-5.96 39.33,0.62 21.48,12 34.8,45.77 38.89,67.8 3.35,18.18 5.48,31.46 6.2,49.82 0.94,10.89 0.38,18.9 -0.14,31.33 -1.14,28.44 -5.89,56.31 -13.74,83.63 -1.34,4.66 -2.86,9.26 -4.92,14.46 -7.37,21.13 -13.22,40.55 -25.13,59.61 -11.4,18.27 -19.59,28.13 -35.21,42.38 7.55,33.24 23.44,73.2 44.2,100.36 12.36,16.16 20.45,24.75 36.88,36.56 21.93,15.77 37.37,20.39 63.74,27.88 21.4,6.07 34.77,6.82 56.61,12.74 32.67,8.86 52.1,14.11 80.32,34.07 8.88,6.27 13.97,10.4 21.44,17.47 17.08,-16.19 37.15,-29.47 58.96,-38.39 16.05,-6.57 25.93,-8.58 42.81,-13.15 21.83,-5.92 35.19,-6.67 56.59,-12.74 26.38,-7.48 41.82,-12.11 63.75,-27.88 16.42,-11.81 24.52,-20.39 36.89,-36.56 20.76,-27.15 36.63,-67.11 44.2,-100.34l0 0zm-40.95 -63.53c2.79,6.26 5.96,12.43 9.78,18.56 9.89,15.9 17.24,25.2 29.48,36.83l-4.8 -18.98c-15.27,-12.8 -26.16,-24.49 -34.46,-36.41z"/>
     </g>
    </g>
   </g>
  </g>
 </g>
</svg>
